<?xml version="1.0" standalone="no"?>
<!DOCTYPE svg PUBLIC "-//W3C//DTD SVG 20010904//EN"
 "http://www.w3.org/TR/2001/REC-SVG-20010904/DTD/svg10.dtd">
<svg version="1.0" xmlns="http://www.w3.org/2000/svg"
 width="490" height="100" viewBox="55 145 490 100"
 preserveAspectRatio="xMidYMid meet">
<g transform="translate(0.000000,400.000000) scale(0.10000,-0.100000)"
fill="#000000" stroke="none">
<path d="M1235 2479 c-276 -33 -496 -203 -534 -415 -38 -206 132 -427 392
-509 339 -108 725 20 855 283 35 72 37 81 37 171 0 86 -3 103 -29 156 -105
215 -413 349 -721 314z m255 -40 c30 -6 59 -13 63 -16 12 -7 -59 -79 -114
-113 -25 -17 -52 -41 -59 -55 -13 -25 -30 -34 -30 -16 0 16 -51 71 -89 97 -20
13 -55 40 -78 58 l-43 35 53 10 c109 22 185 22 297 0z m-330 -64 c19 -25 41
-45 49 -45 22 0 77 -46 100 -83 11 -19 30 -79 41 -133 11 -54 23 -107 26 -118
10 -32 75 -96 98 -96 12 0 32 -7 44 -16 12 -8 22 -11 22 -5 0 16 -30 41 -49
41 -32 0 -79 61 -95 125 -21 77 -20 121 3 171 22 49 60 80 115 95 30 9 36 13
23 18 -15 6 -12 12 21 44 l38 37 53 -27 c30 -16 74 -46 98 -67 l45 -39 -23
-13 c-15 -8 -30 -9 -41 -3 -28 15 -28 11 -3 -38 25 -48 55 -151 55 -186 0 -65
-127 -321 -155 -313 -22 6 -30 56 -13 89 9 18 21 51 27 74 11 40 10 45 -18 84
-17 23 -33 57 -37 75 -7 40 -24 55 -24 22 0 -37 19 -94 38 -119 15 -18 17 -29
9 -63 -6 -23 -16 -55 -23 -73 -8 -17 -14 -37 -14 -44 0 -23 -51 -79 -93 -101
-56 -29 -197 -39 -197 -14 0 12 11 16 48 17 83 1 94 15 17 22 -39 3 -87 13
-107 21 -43 18 -118 92 -118 116 0 9 -7 25 -15 36 -21 28 -19 91 5 121 11 14
20 37 19 52 0 25 -1 25 -12 6 -7 -11 -27 -34 -45 -51 -21 -20 -29 -34 -23 -39
6 -3 11 -21 11 -40 0 -18 8 -47 17 -63 13 -23 15 -37 8 -58 -15 -41 -29 -39
-54 8 -13 24 -34 57 -45 73 -23 31 -51 164 -48 222 3 46 39 133 70 167 21 22
23 28 9 23 -44 -16 -66 -18 -85 -8 -13 7 -22 7 -31 -2 -8 -8 -5 -16 16 -33
l28 -22 -23 -63 c-26 -76 -27 -85 -5 -191 12 -62 24 -93 50 -126 19 -25 43
-62 54 -84 23 -45 41 -48 74 -12 14 15 25 23 26 18 0 -5 2 -22 2 -39 2 -22 7
-31 23 -33 12 -2 24 -12 27 -22 3 -11 17 -22 33 -25 16 -4 44 -14 63 -22 68
-30 208 -1 274 57 39 35 41 36 59 18 25 -25 43 -22 57 10 7 15 30 50 52 78 21
27 53 85 70 128 28 69 31 86 27 150 -3 39 -14 88 -24 109 l-18 39 24 18 c25
19 25 19 42 -3 113 -143 91 -357 -50 -502 -153 -156 -378 -215 -606 -158 -149
37 -301 153 -362 278 -26 54 -29 70 -29 160 0 88 3 107 27 158 39 83 137 178
229 222 40 19 76 35 79 35 3 -1 21 -21 40 -45z m0 -650 c10 -12 10 -15 -4 -15
-9 0 -16 7 -16 15 0 8 2 15 4 15 2 0 9 -7 16 -15z m76 -57 c-11 -6 -22 -6 -32
2 -24 21 -16 30 17 18 27 -9 29 -12 15 -20z"/>
<path d="M1320 1980 c-10 -6 -6 -18 21 -55 36 -49 77 -76 146 -94 24 -7 44
-19 47 -29 2 -9 4 -4 3 12 -2 23 -8 31 -32 38 -77 23 -108 43 -139 89 -23 34
-36 45 -46 39z"/>
<path d="M1262 1938 c-17 -17 -16 -24 21 -72 34 -47 108 -86 160 -86 15 0 36
-9 47 -20 19 -19 20 -19 20 -2 0 26 -20 42 -52 42 -64 0 -161 75 -180 138 -2
10 -6 10 -16 0z"/>
<path d="M1177 1889 c-16 -9 -14 -14 18 -57 46 -60 122 -102 185 -102 25 0 52
-6 59 -12 10 -11 12 -9 9 7 -2 15 -15 22 -53 28 -80 14 -124 37 -161 85 -18
25 -31 48 -28 53 7 12 -7 11 -29 -2z"/>
<path d="M2296 1990 c-108 -165 -196 -302 -196 -305 0 -3 29 -5 64 -5 l64 0
51 80 52 80 114 0 115 0 0 -80 0 -80 65 0 65 0 0 305 0 305 -99 0 -99 0 -196
-300z m261 -47 c-3 -2 -39 -3 -80 -1 l-76 3 77 119 77 120 3 -118 c1 -65 1
-121 -1 -123z"/>
<path d="M2770 1985 l0 -305 65 0 65 0 0 305 0 305 -65 0 -65 0 0 -305z"/>
<path d="M3000 1985 l0 -305 65 0 65 0 0 305 0 305 -65 0 -65 0 0 -305z"/>
<path d="M3660 2215 l0 -75 -30 0 c-29 0 -30 -2 -30 -45 0 -43 1 -45 30 -45
l30 0 0 -136 c0 -156 11 -193 65 -218 37 -18 150 -22 160 -6 4 6 4 29 0 50 -6
37 -9 40 -40 40 -58 0 -65 17 -65 150 l0 119 48 3 47 3 2 43 1 42 -49 0 -49 0
0 75 0 75 -60 0 -60 0 0 -75z"/>
<path d="M4438 2218 l-3 -73 -32 -3 c-32 -3 -33 -5 -33 -48 0 -44 0 -44 35
-44 l35 0 0 -140 c0 -161 10 -193 65 -216 37 -15 150 -19 159 -6 2 4 2 27 -1
50 -5 39 -8 42 -35 42 -64 0 -68 8 -68 145 l0 125 45 0 45 0 0 45 0 45 -45 0
-45 0 0 75 0 75 -60 0 -59 0 -3 -72z"/>
<path d="M3284 2136 c-50 -22 -74 -61 -74 -122 0 -76 23 -99 140 -138 98 -33
123 -53 104 -83 -17 -27 -145 -24 -200 5 l-42 21 -7 -44 c-3 -25 -3 -49 0 -55
11 -18 109 -40 179 -40 127 1 186 47 186 145 0 72 -50 119 -150 140 -89 19
-121 50 -88 83 18 18 108 14 155 -8 l42 -19 7 44 c3 24 3 48 0 54 -19 30 -194
42 -252 17z"/>
<path d="M4045 2143 c-79 -18 -83 -21 -78 -66 3 -23 7 -44 9 -45 1 -2 27 3 57
12 77 22 132 21 158 -5 35 -35 21 -51 -54 -65 -162 -30 -231 -105 -198 -215
24 -79 138 -106 230 -54 52 30 51 30 51 5 0 -18 7 -20 55 -20 l55 0 0 178 c0
149 -3 182 -18 211 -26 52 -72 71 -167 70 -44 -1 -89 -3 -100 -6z m165 -283
c0 -46 -3 -52 -32 -70 -43 -26 -104 -27 -118 -1 -27 51 44 117 128 120 20 1
22 -4 22 -49z"/>
<path d="M4821 2140 c-84 -36 -123 -105 -124 -221 -1 -97 28 -160 91 -204 41
-28 49 -30 140 -30 81 0 104 4 139 23 39 20 42 25 37 55 -10 58 -9 58 -70 30
-101 -46 -194 -18 -210 65 l-6 32 147 0 147 0 -4 63 c-5 76 -30 130 -76 165
-30 23 -46 27 -111 29 -42 2 -87 -2 -100 -7z m131 -84 c10 -7 22 -25 28 -40
20 -54 17 -56 -75 -56 -83 0 -85 0 -85 24 0 39 46 86 83 86 18 0 40 -6 49 -14z"/>
<path d="M5214 1758 c-4 -7 -3 -8 4 -4 12 7 16 16 8 16 -3 0 -8 -5 -12 -12z"/>
<path d="M5254 1736 c-9 -10 -8 -15 6 -23 14 -10 16 -8 12 13 -2 13 -5 24 -6
24 0 -1 -6 -7 -12 -14z"/>
</g>
</svg>
