<?xml version="1.0" standalone="no"?>
<!DOCTYPE svg PUBLIC "-//W3C//DTD SVG 20010904//EN"
 "http://www.w3.org/TR/2001/REC-SVG-20010904/DTD/svg10.dtd">
<svg version="1.0" xmlns="http://www.w3.org/2000/svg"
 width="600.000000pt" height="213.000000pt" viewBox="0 0 600.000000 213.000000"
 preserveAspectRatio="xMidYMid meet">
<g transform="translate(0.000000,213.000000) scale(0.100000,-0.100000)"
fill="#000000" stroke="none">
<path d="M2566 2037 c-20 -25 -54 -57 -76 -72 -48 -33 -51 -59 -10 -80 l30
-16 0 -309 0 -310 329 0 328 0 7 -50 c7 -56 32 -80 81 -80 50 0 60 12 41 48
-35 68 -30 72 104 72 l120 0 0 270 0 269 -75 -75 c-76 -76 -80 -86 -43 -112
16 -11 18 -29 18 -133 l0 -119 -75 0 -75 0 0 45 c0 26 -9 63 -20 85 -34 67
-55 74 -220 81 -139 5 -184 15 -202 43 -10 16 -37 -23 -38 -55 0 -15 9 -38 21
-53 20 -26 21 -26 163 -26 163 0 196 -12 196 -71 l0 -29 -280 0 -280 0 0 356
c1 196 -1 358 -3 361 -3 2 -21 -16 -41 -40z"/>
<path d="M3610 1718 l0 -352 63 -64 62 -64 -55 -49 -54 -49 87 -88 87 -87 87
88 88 87 -55 49 -55 49 63 70 62 71 -2 347 -3 347 -32 -49 c-17 -27 -45 -62
-62 -78 -36 -35 -39 -51 -11 -66 19 -10 20 -21 20 -238 l-1 -227 -49 -50 -49
-50 -51 50 -50 49 0 225 c0 216 1 226 21 247 l22 23 -47 52 c-26 29 -54 65
-62 81 -8 15 -17 28 -19 28 -3 0 -5 -159 -5 -352z m220 -613 l-34 -35 -35 35
-35 35 34 35 34 35 35 -35 35 -35 -34 -35z"/>
<path d="M4110 1656 l0 -416 56 0 55 0 -2 312 -2 311 27 19 c36 27 33 50 -10
73 -20 10 -56 41 -80 68 l-44 49 0 -416z"/>
<path d="M3237 1932 l-37 -38 40 -39 40 -39 33 32 c40 39 46 39 76 2 30 -39
39 -38 84 8 l37 38 -40 39 -40 39 -38 -37 -38 -37 -34 35 c-42 43 -38 43 -83
-3z"/>
<path d="M1740 1651 l0 -151 264 0 c327 0 299 16 294 -172 -3 -151 -6 -158
-61 -158 -58 0 -67 13 -67 95 l0 75 -154 0 c-84 0 -181 3 -215 6 l-62 7 3 -57
3 -58 169 1 169 2 -5 -52 c-9 -86 59 -127 186 -116 124 11 135 36 130 286 -5
256 28 231 -310 231 l-264 0 0 23 c0 12 9 28 20 35 29 18 26 26 -40 93 l-60
61 0 -151z"/>
<path d="M720 800 c-283 -6 -289 -7 -399 -65 -158 -83 -216 -166 -216 -310 0
-106 20 -149 102 -226 126 -118 224 -139 657 -139 l322 0 58 66 c62 70 65 85
13 66 -45 -16 -664 -17 -739 -1 -274 58 -324 341 -81 461 65 32 67 32 241 36
158 4 177 3 188 -13 17 -23 23 -20 87 56 48 56 62 86 38 77 -3 -1 -125 -5
-271 -8z"/>
<path d="M1041 733 c-57 -70 -58 -98 -3 -69 26 13 69 16 247 16 l215 0 0 -278
c0 -229 -3 -282 -15 -298 -30 -40 -22 -44 105 -44 101 0 120 2 120 15 0 9 -7
18 -15 21 -13 5 -15 47 -15 295 l0 289 195 0 c167 0 195 -2 195 -15 0 -32 30
-12 84 54 31 37 56 71 56 74 0 3 -251 5 -558 5 l-558 0 -53 -65z"/>
<path d="M2260 781 c0 -10 7 -21 15 -25 23 -8 23 -664 0 -672 -8 -4 -15 -12
-15 -20 0 -11 23 -14 114 -14 115 0 139 7 111 30 -18 15 -23 674 -5 685 6 3
10 13 10 21 0 11 -22 14 -115 14 -106 0 -115 -1 -115 -19z"/>
<path d="M2570 776 c0 -7 7 -19 15 -26 13 -11 15 -60 15 -335 0 -275 -2 -324
-15 -335 -39 -32 -19 -40 105 -40 96 0 120 3 120 14 0 8 -7 16 -15 20 -12 4
-15 31 -15 154 l0 148 45 12 c30 8 130 12 290 12 l244 0 3 -115 3 -116 80 91
c100 114 93 93 94 301 1 148 3 178 16 183 8 3 15 12 15 21 0 13 -19 15 -120
15 -109 0 -145 -8 -105 -24 12 -4 15 -27 15 -121 l0 -117 -227 2 c-126 1 -233
1 -239 1 -5 -1 -32 -30 -60 -66 l-49 -66 -3 178 c-2 150 0 178 13 185 8 5 15
16 15 23 0 12 -22 15 -120 15 -95 0 -120 -3 -120 -14z"/>
<path d="M3997 739 c-26 -29 -47 -58 -47 -64 0 -6 52 -61 115 -123 l115 -112
-101 0 -100 0 -48 -52 c-27 -29 -49 -57 -50 -62 0 -5 84 -8 197 -7 l199 2 113
-121 c83 -91 109 -124 99 -131 -26 -16 0 -20 124 -17 l126 3 -232 246 c-128
135 -284 301 -347 369 l-116 123 -47 -54z"/>
<path d="M4670 776 c0 -9 7 -19 15 -22 10 -4 15 -20 15 -44 l0 -39 388 -3
c435 -5 451 -7 540 -77 110 -87 122 -247 24 -332 -89 -79 -184 -99 -469 -99
l-193 0 0 230 0 230 -85 0 -85 0 0 -264 c0 -225 -2 -265 -15 -270 -8 -3 -15
-11 -15 -18 0 -17 649 -14 755 3 102 16 218 74 282 142 181 191 36 492 -267
557 -97 21 -890 26 -890 6z"/>
<path d="M3860 613 c-18 -21 -144 -153 -281 -295 -137 -141 -249 -259 -249
-262 0 -12 264 0 268 12 2 7 -3 12 -12 12 -9 0 -16 3 -16 6 0 6 175 194 352
379 82 85 80 77 29 136 -51 59 -51 59 -91 12z"/>
<path d="M346 463 l-36 -58 350 -3 c302 -2 350 -4 350 -17 0 -31 28 -13 83 54
31 38 57 72 57 75 0 3 -173 6 -384 6 l-384 0 -36 -57z"/>
</g>
</svg>
