<?xml version="1.0" standalone="no"?>
<!DOCTYPE svg PUBLIC "-//W3C//DTD SVG 20010904//EN"
 "http://www.w3.org/TR/2001/REC-SVG-20010904/DTD/svg10.dtd">
<svg version="1.0" xmlns="http://www.w3.org/2000/svg"
 width="1200" height="295" viewBox="0 0 1200 295"
 preserveAspectRatio="xMidYMid meet">
<g transform="translate(0.000000,322.000000) scale(0.100000,-0.100000)"
fill="#000000" stroke="none">
<path d="M9340 3200 c-13 -18 -73 -52 -112 -64 -15 -4 -16 -9 -7 -30 11 -22
-13 -103 -61 -211 -5 -11 -23 -60 -40 -110 -17 -49 -35 -99 -40 -110 -11 -28
-83 -216 -112 -293 -32 -89 -56 -112 -113 -112 -43 0 -45 -1 -45 -29 0 -28 0
-28 163 -27 162 2 162 2 162 26 0 23 -4 25 -50 26 -58 0 -75 8 -75 33 0 17 42
145 61 186 5 11 15 38 22 60 14 40 14 40 182 40 167 0 167 0 197 -95 29 -93
44 -143 55 -187 5 -23 -18 -36 -67 -37 -20 -1 -25 -6 -25 -25 0 -25 0 -25 190
-25 190 -1 190 -1 190 24 0 23 -5 26 -53 31 -59 8 -87 27 -107 76 -16 37 -98
283 -211 630 -43 133 -81 243 -84 243 -3 0 -12 -9 -20 -20z m-25 -219 c9 -35
35 -116 57 -180 61 -177 69 -163 -97 -161 -76 0 -141 3 -144 5 -2 3 11 42 29
87 18 46 50 134 72 197 54 159 55 160 83 52z"/>
<path d="M11040 3158 c-7 -35 -17 -70 -20 -78 -19 -39 -42 -129 -36 -139 15
-24 42 -10 61 32 54 122 75 134 240 139 110 3 110 3 106 -412 -2 -296 -7 -417
-15 -422 -6 -4 -39 -8 -74 -8 -63 0 -63 0 -60 -27 3 -27 3 -27 211 -28 183 0
210 2 217 16 14 26 -9 39 -70 39 -31 0 -61 5 -68 12 -9 9 -12 117 -12 426 0
414 0 414 113 407 166 -10 170 -12 215 -106 24 -52 43 -79 54 -79 27 0 29 13
12 101 -29 158 -37 189 -51 189 -7 0 -13 -4 -13 -10 0 -21 -46 -30 -187 -37
-285 -14 -548 -1 -566 29 -23 36 -42 21 -57 -44z"/>
<path d="M465 3181 c-201 -32 -347 -152 -401 -330 -19 -62 -18 -231 1 -306 43
-162 143 -264 320 -326 70 -25 305 -19 390 9 114 38 161 64 157 87 -8 43 -7
244 1 252 5 4 30 8 55 8 40 0 47 3 50 21 5 33 -17 43 -68 34 -56 -11 -160 -11
-225 0 -56 9 -78 -1 -73 -34 3 -18 10 -21 53 -22 28 0 56 -3 63 -8 15 -9 17
-218 2 -246 -19 -35 -115 -62 -225 -63 -90 -1 -106 2 -159 28 -113 54 -176
143 -210 294 -40 182 1 345 115 459 70 70 109 85 224 90 116 5 183 -17 249
-81 36 -35 86 -127 86 -158 0 -21 26 -43 44 -36 15 6 11 284 -5 301 -5 5 -16
-4 -26 -22 -21 -37 -25 -38 -61 -12 -70 51 -237 79 -357 61z"/>
<path d="M6504 3166 c-14 -38 0 -51 50 -48 90 6 85 28 83 -429 -2 -303 -5
-401 -15 -411 -6 -6 -36 -12 -65 -13 -49 0 -52 -2 -52 -25 0 -25 0 -25 193
-25 193 -1 193 -1 190 24 -3 24 -7 26 -51 27 -27 1 -54 7 -60 13 -8 8 -13 75
-15 212 -3 199 -3 199 270 197 273 -3 273 -3 269 -203 -1 -110 -7 -204 -12
-209 -5 -6 -35 -10 -66 -10 -55 -1 -58 -2 -58 -25 0 -25 0 -25 198 -26 197 -1
197 -1 197 27 0 27 -2 28 -53 28 -29 0 -58 5 -65 12 -14 14 -17 804 -3 826 5
9 24 12 57 10 48 -3 49 -3 49 27 0 30 0 30 -60 25 -71 -6 -190 -6 -260 1 -50
4 -50 4 -50 -26 0 -30 0 -30 51 -27 32 1 55 -2 61 -10 6 -7 14 -93 17 -190 7
-178 7 -178 -268 -178 -276 0 -276 0 -276 168 0 205 4 215 84 210 51 -3 51 -3
54 29 3 33 3 33 -60 25 -82 -9 -209 -9 -276 1 -42 6 -53 5 -58 -7z"/>
<path d="M7815 3170 c-4 -6 -4 -23 0 -37 6 -24 9 -25 50 -19 36 6 47 4 64 -13
20 -20 21 -31 21 -420 0 -455 8 -418 -92 -412 -47 3 -48 2 -48 -26 0 -28 0
-28 369 -28 203 0 373 4 377 7 11 12 84 201 84 219 0 9 -8 20 -17 24 -19 7
-21 5 -88 -90 -48 -68 -81 -90 -163 -106 -68 -13 -187 -8 -237 11 -54 19 -59
38 -63 234 -4 178 -4 178 92 173 127 -8 146 -19 146 -85 0 -38 14 -54 41 -50
21 3 24 8 21 38 -4 57 -5 243 -1 265 3 16 -2 21 -28 23 -32 3 -33 2 -33 -35 0
-21 -9 -52 -19 -69 -18 -30 -21 -31 -112 -37 -52 -3 -97 -3 -102 2 -4 4 -6 92
-5 195 3 188 3 188 125 187 181 -3 212 -16 301 -132 89 -115 105 -87 47 83
-28 83 -38 102 -52 100 -40 -6 -581 -5 -625 2 -30 4 -49 3 -53 -4z"/>
<path d="M10014 3166 c-13 -35 0 -51 42 -51 78 0 74 22 74 -430 0 -451 7 -415
-76 -415 -43 0 -45 -1 -42 -27 3 -27 3 -27 188 -27 185 0 185 0 188 27 3 27 3
27 -58 27 -79 0 -81 6 -78 214 3 161 3 161 35 164 55 5 115 -29 165 -94 45
-59 127 -188 129 -202 0 -4 19 -36 42 -70 42 -64 42 -64 159 -67 91 -2 118 1
122 11 10 27 -6 42 -52 47 -57 6 -95 44 -198 199 -38 57 -90 125 -116 151 -27
27 -42 49 -35 51 108 29 132 41 171 79 62 62 81 159 50 250 -44 128 -197 187
-434 167 -88 -8 -145 -8 -190 -1 -82 14 -80 14 -86 -3z m437 -57 c90 -23 168
-127 156 -205 -21 -128 -117 -201 -270 -206 -82 -3 -82 -3 -85 187 -3 208 0
231 26 239 22 6 127 -2 173 -15z"/>
<path d="M5485 2830 c-22 -16 -46 -29 -53 -30 -8 0 -11 -7 -7 -19 3 -11 -23
-84 -71 -192 -140 -321 -130 -304 -189 -324 -20 -7 -30 -17 -30 -30 0 -19 7
-20 115 -20 112 0 115 1 118 23 3 22 -3 26 -46 22 -34 -2 -35 18 -3 105 29 80
29 80 138 83 110 3 110 3 137 -82 29 -88 28 -106 -5 -106 -13 0 -19 -7 -19
-22 0 -23 2 -23 132 -23 122 0 133 2 136 19 5 22 -14 36 -49 36 -50 0 -63 29
-175 358 -43 127 -81 232 -84 231 -3 0 -23 -14 -45 -29z m14 -158 c7 -31 23
-83 36 -115 12 -31 20 -59 16 -61 -5 -3 -172 -1 -178 3 -1 0 11 30 27 65 16
36 36 89 46 119 21 68 37 65 53 -11z"/>
<path d="M2245 2814 c-65 -33 -120 -87 -153 -149 -37 -70 -39 -214 -4 -290 53
-116 145 -169 292 -170 109 0 162 19 225 82 66 66 80 105 80 223 0 96 -2 110
-29 163 -56 110 -153 167 -284 167 -62 0 -86 -5 -127 -26z m194 -44 c90 -46
135 -135 134 -270 0 -132 -35 -201 -118 -236 -124 -51 -246 41 -275 208 -36
207 109 375 259 298z"/>
<path d="M3995 2828 c-97 -32 -180 -101 -211 -174 -21 -50 -28 -141 -15 -207
37 -198 246 -293 479 -218 72 24 72 24 72 107 0 83 0 84 28 90 48 10 54 14 50
31 -3 16 -19 18 -146 20 -142 2 -142 2 -142 -22 0 -22 4 -25 36 -25 58 0 74
-14 74 -66 0 -56 -11 -78 -47 -92 -82 -31 -142 -21 -204 35 -143 129 -120 381
42 464 93 47 179 12 253 -104 33 -51 39 -56 57 -46 16 8 19 16 14 32 -5 12
-10 49 -12 82 -6 73 -18 93 -43 70 -16 -14 -22 -13 -68 10 -54 27 -156 34
-217 13z"/>
<path d="M4865 2828 c-22 -6 -86 -7 -142 -4 -106 5 -119 1 -108 -34 5 -16 15
-20 55 -20 34 0 50 -4 54 -16 3 -9 6 -118 6 -244 0 -250 -2 -258 -58 -247 -35
7 -55 -5 -50 -29 3 -18 15 -19 151 -19 148 -1 148 -1 145 25 -2 20 -8 25 -29
22 -56 -5 -60 11 -57 269 3 234 3 234 43 239 33 4 41 9 43 29 5 33 -7 39 -53
29z"/>
<path d="M1282 2800 c3 -22 9 -25 46 -28 24 -2 42 -8 42 -15 4 -200 1 -477 -5
-486 -4 -8 -18 -11 -34 -8 -34 7 -54 -5 -49 -29 3 -17 19 -18 251 -18 249 -1
249 -1 279 77 24 62 27 81 18 92 -20 24 -33 17 -68 -36 -47 -72 -80 -89 -173
-89 -102 0 -106 5 -110 140 -4 105 -4 105 54 103 64 -2 84 -13 89 -46 2 -16
10 -22 28 -22 24 0 24 0 23 100 -2 99 -2 100 -27 103 -22 3 -26 -1 -26 -22 0
-13 -6 -31 -14 -39 -15 -14 -114 -33 -124 -22 -3 3 -5 53 -5 113 1 107 1 107
90 104 83 -4 90 -6 121 -35 19 -18 41 -44 50 -59 21 -36 62 -39 62 -5 0 13 -4
27 -10 33 -5 5 -15 33 -23 63 -13 53 -13 53 -251 54 -237 2 -237 2 -234 -23z"/>
<path d="M2952 2800 c2 -18 10 -26 28 -28 52 -8 52 -9 49 -255 -3 -243 -7
-265 -51 -254 -20 6 -41 -22 -30 -39 4 -6 62 -10 137 -9 119 0 130 2 133 19 5
23 -16 37 -44 30 -35 -9 -47 19 -50 116 -2 98 5 108 59 95 35 -9 56 -34 129
-155 64 -105 64 -105 149 -105 79 0 84 1 87 22 3 18 -4 24 -36 33 -42 11 -68
36 -136 132 -22 31 -51 63 -65 71 -26 16 -26 16 10 31 153 64 172 228 36 298
-38 19 -58 21 -225 22 -183 1 -183 1 -180 -24z m329 -45 c120 -63 44 -240
-100 -233 -55 3 -55 3 -54 119 0 64 4 122 8 129 10 16 105 6 146 -15z"/>
<path d="M205 1751 c-8 -13 23 -41 45 -41 11 0 24 -9 30 -19 11 -21 15 -438 4
-466 -4 -8 -19 -22 -35 -31 -57 -29 -36 -39 81 -39 95 0 110 2 110 16 0 11
-12 19 -36 23 -19 4 -37 12 -39 19 -9 24 -12 218 -4 223 5 2 73 5 151 6 143 0
143 0 146 -98 3 -120 -1 -142 -32 -150 -24 -6 -42 -30 -28 -37 4 -2 52 -3 107
-2 79 0 100 3 100 14 0 8 -13 18 -29 22 -16 5 -33 14 -37 21 -11 16 -11 469
-1 484 4 7 16 13 27 15 11 3 21 11 23 20 2 13 -10 15 -75 15 -43 0 -87 2 -98
5 -15 3 -20 -1 -20 -16 0 -14 8 -21 26 -23 34 -4 39 -21 39 -140 0 -93 0 -93
-152 -90 -165 3 -157 -7 -148 205 0 7 12 18 28 25 32 16 37 45 7 39 -61 -11
-128 -12 -138 -2 -13 13 -44 14 -52 2z"/>
<path d="M6621 1746 c-16 -20 -6 -36 23 -36 44 0 46 -11 46 -252 0 -215 -1
-229 -20 -248 -11 -11 -26 -20 -34 -20 -18 0 -29 -29 -13 -36 7 -2 35 0 62 5
33 6 68 6 103 -1 40 -8 56 -8 65 1 15 16 -16 41 -50 41 -38 0 -43 35 -43 276
0 254 -3 247 79 225 155 -41 153 -241 -2 -241 -51 0 -68 -13 -38 -29 60 -33
170 11 207 81 22 41 18 124 -7 159 -39 55 -90 72 -219 73 -63 1 -122 5 -131 9
-10 5 -20 2 -28 -7z"/>
<path d="M4774 1572 c-12 -34 -50 -120 -127 -283 -25 -53 -53 -99 -61 -102 -9
-4 -16 -12 -16 -20 0 -10 18 -13 65 -14 47 0 65 3 65 13 0 7 -9 16 -20 19 -21
7 -28 49 -10 60 6 3 10 14 10 24 0 29 20 38 97 43 71 5 71 5 92 -51 20 -55 20
-55 0 -74 -29 -27 -19 -32 65 -32 81 0 98 11 49 34 -26 12 -83 108 -83 140 0
4 -17 50 -38 102 -21 52 -42 106 -45 120 -8 33 -35 46 -43 21z m56 -213 c0
-12 -97 -12 -105 0 -3 6 4 26 15 46 11 19 20 41 20 48 0 7 5 18 12 25 9 9 17
-2 35 -49 13 -34 23 -65 23 -70z"/>
<path d="M10690 1498 c-24 -51 -50 -109 -58 -128 -42 -103 -84 -180 -97 -180
-8 0 -15 -4 -15 -10 0 -5 0 -13 0 -17 0 -9 110 -13 124 -5 5 3 -3 15 -18 27
-27 21 -27 21 -4 72 22 52 22 52 93 55 80 4 84 2 102 -49 17 -50 16 -68 -2
-83 -23 -19 -12 -23 70 -25 81 -3 100 12 46 34 -29 13 -61 71 -97 179 -9 26
-25 65 -35 87 -9 22 -24 60 -32 85 -8 24 -19 46 -24 47 -6 2 -29 -38 -53 -89z
m66 -74 c13 -32 21 -61 18 -66 -7 -11 -91 -10 -99 2 -6 10 45 133 53 125 3 -2
15 -30 28 -61z"/>
<path d="M1305 1555 c-61 -35 -93 -81 -103 -149 -17 -110 23 -190 116 -232
104 -47 208 -20 270 70 29 44 32 55 32 126 0 92 -18 127 -94 178 -63 42 -156
45 -221 7z m140 -16 c128 -35 173 -229 73 -314 -117 -100 -282 12 -265 180 6
64 23 91 75 122 42 26 60 28 117 12z"/>
<path d="M2061 1551 c-27 -25 -31 -36 -31 -80 0 -64 22 -89 106 -120 85 -32
104 -47 104 -80 0 -50 -31 -76 -88 -76 -56 0 -81 16 -107 71 -9 19 -20 32 -26
29 -12 -8 -12 -52 1 -60 6 -3 10 -17 10 -31 0 -44 112 -70 175 -40 59 28 75
53 75 114 0 67 -30 102 -113 128 -94 29 -124 78 -75 124 39 36 114 16 140 -37
7 -14 19 -28 25 -31 19 -6 28 28 14 50 -6 10 -9 23 -6 28 4 6 -2 13 -12 16
-10 3 -26 10 -35 15 -10 5 -42 9 -72 9 -46 0 -59 -4 -85 -29z"/>
<path d="M2680 1566 c0 -6 10 -16 23 -21 21 -10 22 -15 25 -176 2 -165 2 -165
-23 -179 -42 -23 -23 -33 63 -35 93 -2 110 7 58 31 -34 17 -35 17 -38 91 -3
77 3 93 27 73 26 -21 91 -2 125 36 54 62 33 146 -45 178 -41 18 -215 19 -215
2z m169 -32 c97 -39 85 -147 -18 -161 -46 -6 -44 -13 -41 97 2 89 1 87 59 64z"/>
<path d="M3350 1571 c0 -6 12 -16 28 -23 27 -13 27 -13 30 -180 2 -159 1 -168
-18 -178 -42 -22 -22 -35 55 -35 77 0 96 11 55 32 -37 18 -40 31 -40 184 0
142 1 146 25 169 38 36 32 40 -55 40 -44 0 -80 -4 -80 -9z"/>
<path d="M3900 1565 c-16 -20 -16 -90 0 -90 8 0 16 9 19 20 5 28 19 35 79 35
52 0 52 0 52 -163 0 -164 0 -164 -25 -177 -46 -24 -30 -36 49 -35 88 1 100 8
57 32 -31 18 -31 18 -31 181 0 162 0 162 65 162 59 0 65 -2 65 -21 0 -14 5
-19 18 -17 13 3 16 11 14 38 -2 19 -5 36 -6 37 -7 8 -349 6 -356 -2z"/>
<path d="M5364 1569 c-2 -5 9 -15 26 -24 30 -16 30 -16 30 -175 0 -159 0 -159
-27 -184 -34 -32 -24 -43 27 -30 25 7 59 8 97 2 71 -12 127 4 157 45 31 42 7
58 -35 23 -28 -24 -38 -27 -98 -24 -66 3 -66 3 -69 147 -4 163 0 187 28 196
11 3 20 12 20 19 0 14 -147 19 -156 5z"/>
<path d="M7434 1568 c-3 -5 8 -13 24 -19 38 -13 43 -39 41 -200 -1 -140 -4
-155 -30 -162 -10 -3 -19 -11 -19 -19 0 -11 19 -14 85 -15 90 0 115 15 53 33
-33 10 -33 10 -36 87 -3 77 -3 77 26 77 25 0 35 -10 76 -74 58 -93 96 -126
142 -126 44 0 46 26 4 44 -19 8 -52 42 -86 90 -56 78 -56 78 -25 104 60 51 51
136 -17 171 -31 16 -57 20 -136 19 -53 -1 -99 -5 -102 -10z m204 -45 c73 -45
39 -143 -50 -143 -38 0 -38 0 -38 79 0 96 18 109 88 64z"/>
<path d="M8275 1556 c-69 -40 -99 -95 -103 -184 -3 -72 -2 -80 28 -125 58 -87
191 -123 277 -77 165 89 161 324 -6 396 -52 22 -148 17 -196 -10z m153 -22
c56 -23 91 -62 108 -122 62 -211 -201 -316 -295 -117 -69 148 47 298 187 239z"/>
<path d="M9098 1552 c-150 -109 -133 -319 31 -388 56 -23 115 -18 187 18 64
32 64 32 64 99 0 50 4 68 15 73 8 3 15 11 15 19 0 9 -18 12 -67 11 -49 -1 -68
-5 -68 -15 0 -7 11 -16 25 -19 22 -5 25 -12 28 -52 4 -63 -26 -98 -90 -105
-68 -8 -110 10 -149 65 -31 43 -34 53 -34 118 0 82 27 130 91 160 64 31 181
-10 204 -71 15 -39 44 -33 36 6 -3 17 -6 42 -6 56 0 17 -5 24 -17 22 -10 -2
-35 5 -57 14 -63 28 -162 22 -208 -11z"/>
<path d="M9794 1569 c-3 -5 7 -14 23 -20 15 -5 30 -14 33 -19 3 -5 5 -81 4
-167 -2 -147 -4 -159 -23 -172 -41 -27 -24 -36 64 -37 92 0 107 10 52 36 -30
14 -32 19 -37 78 -6 77 -5 82 29 82 23 0 35 -11 75 -74 61 -97 97 -128 145
-124 43 4 44 17 5 39 -16 8 -56 50 -88 93 -59 77 -59 77 -27 104 60 50 50 140
-19 174 -38 18 -225 24 -236 7z m180 -33 c96 -40 82 -156 -20 -156 -44 0 -44
0 -44 79 0 73 3 83 28 90 1 1 18 -5 36 -13z"/>
<path d="M11290 1571 c0 -5 15 -19 34 -31 46 -28 51 -56 35 -212 -10 -106 -16
-132 -31 -141 -35 -22 -19 -33 52 -33 74 -1 92 13 45 34 -25 11 -25 14 -25
127 0 75 4 114 10 110 6 -3 10 -11 10 -16 0 -6 10 -31 21 -57 12 -26 34 -76
50 -112 31 -72 53 -87 70 -44 5 16 25 60 43 99 18 38 39 85 47 103 23 54 34
31 37 -83 2 -99 1 -109 -18 -122 -33 -24 -26 -47 13 -38 36 8 39 8 85 -1 25
-5 32 -3 32 10 0 9 -6 16 -13 16 -38 0 -45 31 -48 190 -3 156 0 180 27 180 8
0 14 7 14 15 0 11 -11 15 -39 15 -39 0 -39 0 -105 -135 -36 -74 -66 -141 -66
-149 0 -7 -7 -19 -15 -26 -13 -11 -17 -6 -31 26 -22 54 -101 224 -118 254 -12
21 -23 26 -65 28 -28 2 -51 -1 -51 -7z"/>
<path d="M0 860 c0 -20 7 -20 6000 -20 5993 0 6000 0 6000 20 0 20 -7 20
-6000 20 -5993 0 -6000 0 -6000 -20z"/>
<path d="M583 518 c-7 -12 6 -28 23 -28 23 0 23 -4 -48 -210 -27 -77 -37 -95
-56 -100 -49 -11 -20 -25 53 -25 73 0 101 14 53 26 -26 6 -26 16 1 94 17 50
17 50 109 50 106 1 104 4 71 -86 -20 -53 -24 -59 -50 -59 -19 0 -29 -5 -29
-15 0 -13 14 -15 83 -13 76 3 112 19 60 26 -30 4 -29 13 7 124 53 162 61 179
87 189 45 17 21 34 -47 33 -63 -1 -95 -19 -52 -30 19 -6 19 -6 0 -72 -20 -67
-20 -67 -110 -65 -50 1 -93 4 -96 7 -2 3 0 19 7 36 6 16 16 43 22 59 8 21 19
31 37 33 16 2 27 9 27 18 0 12 -15 15 -73 15 -41 0 -76 -3 -79 -7z"/>
<path d="M1294 519 c-4 -7 0 -17 10 -25 20 -14 17 -31 -14 -99 -10 -22 -25
-62 -34 -89 -9 -26 -26 -68 -37 -92 -22 -49 -19 -64 13 -64 30 0 93 49 79 63
-7 7 -15 6 -26 -3 -8 -7 -18 -10 -21 -8 -5 5 22 73 47 120 5 10 9 22 9 28 0 5
12 35 26 66 39 85 38 108 -8 112 -20 2 -39 -2 -44 -9z"/>
<path d="M2773 518 c-8 -14 8 -28 33 -28 32 0 31 -7 -18 -157 -46 -144 -51
-153 -84 -153 -15 0 -24 -6 -24 -15 0 -13 24 -15 158 -15 157 0 157 0 180 48
12 26 22 51 22 55 0 15 -41 6 -47 -10 -19 -50 -44 -63 -118 -63 -39 0 -74 3
-78 6 -5 5 10 58 37 127 7 16 16 25 24 22 8 -3 25 -5 39 -5 16 0 27 -7 30 -20
8 -31 33 -24 33 9 0 17 5 33 10 36 13 8 13 55 1 55 -5 0 -18 -11 -29 -25 -15
-18 -29 -25 -56 -25 -42 0 -41 -2 -16 70 19 55 19 55 68 58 45 3 52 0 75 -28
27 -32 64 -42 53 -14 -3 9 -6 23 -6 32 -1 43 -13 47 -151 47 -72 0 -133 -3
-136 -7z"/>
<path d="M3535 520 c-8 -14 3 -30 21 -30 16 0 18 -13 5 -38 -5 -9 -13 -28 -19
-42 -5 -14 -19 -46 -31 -72 -12 -26 -21 -50 -21 -53 0 -2 -11 -29 -25 -59 -30
-66 -31 -76 -6 -76 13 0 28 20 51 67 28 59 90 133 112 133 17 0 25 -34 15 -64
-33 -97 -40 -107 -69 -101 -32 8 -48 -16 -28 -40 30 -36 83 3 119 88 51 119 3
196 -76 124 -13 -11 -23 -16 -23 -10 0 9 6 22 53 121 18 37 19 45 7 52 -20 13
-77 13 -85 0z"/>
<path d="M5306 523 c-10 -3 -29 -17 -41 -32 -13 -14 -33 -37 -45 -51 -12 -14
-34 -41 -49 -60 -14 -19 -38 -48 -53 -64 -15 -16 -42 -48 -60 -72 -19 -25 -49
-50 -71 -59 -54 -22 -37 -35 43 -35 67 0 103 16 61 27 -29 7 -27 14 25 77 45
56 56 61 122 55 10 -1 5 -37 -14 -86 -12 -34 -21 -43 -40 -43 -15 0 -24 -6
-24 -15 0 -12 16 -15 80 -15 81 0 103 12 55 30 -29 11 -30 13 -10 76 36 120
55 193 55 213 0 11 5 21 10 21 6 0 10 9 10 20 0 20 -13 23 -54 13z m-6 -55 c0
-2 -9 -30 -19 -63 -18 -58 -20 -60 -56 -63 -29 -3 -35 0 -28 10 43 69 104 137
103 116z"/>
<path d="M7424 518 c-8 -12 5 -28 22 -28 20 0 19 -9 -32 -167 -42 -132 -48
-143 -70 -143 -15 0 -24 -6 -24 -15 0 -12 16 -15 80 -15 64 0 80 3 80 15 0 9
-9 15 -25 15 -30 0 -32 16 -8 91 20 64 29 72 58 53 22 -15 25 -19 69 -117 26
-57 26 -57 76 -57 38 0 50 4 50 15 0 8 -8 15 -18 15 -24 0 -54 33 -85 97 -27
56 -27 56 27 83 60 31 71 111 19 145 -28 19 -209 29 -219 13z m191 -52 c30
-45 -15 -99 -94 -112 -47 -8 -48 -4 -26 69 20 66 21 67 65 67 31 0 43 -5 55
-24z"/>
<path d="M8704 519 c-4 -7 1 -18 11 -25 16 -12 17 -17 5 -41 -14 -32 -16 -37
-60 -153 -17 -47 -36 -93 -41 -102 -14 -28 -11 -48 9 -48 26 0 82 29 89 47 8
20 -4 28 -22 13 -9 -7 -18 -10 -21 -7 -6 5 71 208 104 274 9 18 13 35 9 39
-12 12 -76 15 -83 3z"/>
<path d="M9026 511 c-2 -9 -12 -28 -22 -42 -11 -16 -14 -34 -10 -45 7 -17 12
-14 44 23 31 35 44 42 79 45 23 1 45 -1 48 -4 3 -3 -8 -50 -25 -104 -18 -55
-37 -115 -43 -134 -15 -48 -36 -70 -64 -70 -14 0 -23 -6 -23 -15 0 -13 14 -15
85 -13 79 3 120 19 68 26 -16 2 -23 10 -23 24 0 21 33 141 51 183 4 11 13 39
20 63 12 41 13 42 55 42 42 0 44 -1 55 -40 18 -61 39 -52 39 18 0 57 0 57
-164 58 -142 0 -165 -2 -170 -15z"/>
<path d="M1803 513 c-7 -2 -13 -18 -13 -34 0 -25 4 -29 29 -29 21 0 32 6 36
20 11 34 -17 58 -52 43z"/>
<path d="M7118 474 c-4 -3 3 -15 14 -26 11 -11 22 -17 26 -14 3 4 -3 16 -14
27 -11 11 -23 17 -26 13z"/>
<path d="M6790 428 c-11 -18 -20 -38 -20 -45 0 -7 -12 -11 -26 -10 -32 2 -45
-22 -16 -30 20 -5 20 -5 -1 -56 -12 -29 -29 -68 -38 -87 -20 -41 -17 -50 19
-49 52 1 128 69 78 69 -9 0 -16 -4 -16 -10 0 -5 -7 -10 -15 -10 -20 0 -19 11
6 68 34 77 34 77 68 74 26 -3 31 0 31 17 0 16 -6 21 -26 21 -26 0 -26 1 -10
25 9 13 16 31 16 40 0 26 -30 16 -50 -17z"/>
<path d="M10268 443 c-8 -10 -19 -30 -25 -45 -9 -19 -17 -25 -31 -21 -27 7
-38 -15 -16 -32 15 -11 17 -17 7 -36 -70 -146 -73 -159 -29 -159 27 0 79 24
96 45 19 23 -13 30 -44 10 -34 -23 -33 -10 6 75 28 59 35 68 57 67 17 -1 26 4
29 16 2 12 -3 17 -17 17 -25 0 -26 8 -5 31 16 18 13 49 -4 49 -5 0 -15 -8 -24
-17z"/>
<path d="M11509 444 c-8 -10 -19 -29 -25 -43 -7 -17 -18 -26 -34 -26 -13 0
-25 -6 -27 -12 -3 -7 2 -13 11 -13 24 0 20 -28 -14 -95 -37 -75 -39 -105 -7
-105 28 0 80 24 97 45 19 23 -13 30 -44 10 -27 -18 -33 -9 -17 23 5 9 20 38
32 65 20 38 29 47 50 47 36 0 58 26 30 35 -12 3 -25 3 -31 0 -17 -11 -11 16
10 42 30 38 0 64 -31 27z"/>
<path d="M1523 435 c-11 -8 -23 -26 -27 -39 -3 -14 -16 -28 -29 -31 -24 -8
-67 -44 -67 -57 0 -13 22 -9 42 9 10 9 21 14 24 10 5 -5 -20 -88 -46 -152 -10
-25 -19 -47 -40 -105 -10 -29 -23 -46 -36 -48 -52 -10 -31 -22 36 -22 73 0 74
1 53 18 -22 17 -22 17 -3 72 18 53 21 56 72 73 68 24 115 68 123 118 8 46 -11
92 -40 97 -43 7 -47 10 -35 33 16 29 0 43 -27 24z m33 -83 c26 -17 36 -53 23
-83 -12 -30 -95 -96 -107 -85 -10 11 51 176 66 176 4 0 12 -4 18 -8z"/>
<path d="M3872 379 c-37 -22 -75 -62 -93 -99 -28 -59 -30 -68 -27 -96 5 -47
50 -46 99 2 25 24 39 32 39 23 0 -8 -5 -20 -11 -26 -14 -14 -3 -33 19 -33 23
0 89 56 79 66 -4 5 -17 2 -28 -5 -12 -7 -23 -11 -25 -8 -5 4 30 98 53 140 17
32 9 50 -17 42 -11 -3 -27 -2 -37 3 -13 7 -28 4 -51 -9z m44 -34 c11 -27 -6
-65 -49 -110 -47 -49 -67 -56 -67 -25 0 29 27 79 63 118 34 36 45 39 53 17z"/>
<path d="M6164 385 c-60 -30 -68 -59 -34 -125 11 -22 20 -48 20 -60 0 -13 -7
-20 -20 -20 -11 0 -20 4 -20 9 0 14 -32 23 -43 12 -5 -5 -6 -19 -2 -31 6 -18
13 -21 53 -18 40 3 49 7 64 34 18 31 18 33 -2 79 -11 25 -20 55 -20 66 0 21
26 26 32 7 6 -17 38 -1 38 19 0 25 -39 42 -66 28z"/>
<path d="M1073 374 c-31 -15 -67 -61 -91 -117 -26 -61 -6 -107 48 -107 36 0
90 34 90 56 0 20 -20 17 -46 -7 -31 -29 -54 -19 -54 26 0 29 4 35 21 35 63 0
131 68 109 110 -13 24 -34 25 -77 4z m37 -38 c0 -13 -49 -56 -64 -56 -13 0 -5
25 16 47 24 26 48 30 48 9z"/>
<path d="M1773 374 c-40 -20 -67 -49 -58 -64 5 -8 14 -6 31 5 29 19 30 10 5
-49 -11 -25 -23 -61 -27 -81 -6 -34 -5 -35 25 -35 17 0 31 4 31 8 0 5 11 14
25 20 14 6 25 18 25 27 0 18 -21 20 -38 3 -24 -24 -22 2 8 77 26 64 29 81 18
91 -11 11 -19 10 -45 -2z"/>
<path d="M1967 372 c-35 -16 -57 -46 -43 -59 3 -4 14 1 23 9 36 30 46 32 38 7
-7 -24 -36 -91 -60 -141 -14 -30 -11 -38 17 -38 11 0 23 11 29 28 28 72 54
113 91 142 21 18 42 29 45 26 8 -7 -15 -81 -39 -124 -25 -46 -24 -72 5 -72 24
0 87 35 87 48 0 17 -13 21 -32 11 -36 -19 -33 -9 23 103 37 73 -33 99 -97 37
-32 -31 -32 -31 -31 1 2 40 -7 44 -56 22z"/>
<path d="M2305 357 c-37 -37 -49 -99 -23 -125 9 -9 9 -15 0 -24 -7 -7 -12 -25
-12 -40 0 -17 -5 -28 -14 -28 -19 0 -66 -49 -66 -70 0 -56 128 -92 197 -55 27
15 33 24 33 51 0 32 -12 46 -84 97 -34 24 -33 36 4 43 42 9 76 47 84 94 6 37
8 40 31 34 22 -5 25 -3 25 20 0 25 -3 27 -42 26 -24 -1 -55 2 -70 5 -23 6 -34
1 -63 -28z m69 -3 c9 -3 16 -15 16 -26 0 -49 -63 -118 -76 -83 -9 23 4 76 23
97 18 21 16 20 37 12z m-27 -250 c39 -30 42 -57 8 -72 -34 -16 -50 -15 -85 3
-36 18 -38 40 -8 72 28 29 43 29 85 -3z"/>
<path d="M3196 383 c-30 -8 -78 -55 -66 -67 6 -6 18 -2 35 14 25 23 25 23 25
2 0 -12 -4 -30 -9 -40 -59 -118 -65 -146 -30 -140 14 2 25 15 33 39 7 20 21
51 32 69 21 37 91 97 100 87 7 -7 -23 -98 -48 -145 -10 -18 -16 -37 -13 -43 8
-12 65 -12 65 1 0 6 7 10 15 10 18 0 30 24 20 40 -5 8 -11 8 -21 -1 -25 -20
-24 -5 2 51 16 34 24 67 22 90 -3 32 -5 35 -32 32 -15 -2 -40 -14 -55 -28 -26
-24 -26 -24 -31 2 -5 29 -14 34 -44 27z"/>
<path d="M4109 371 c-19 -10 -35 -27 -37 -40 -4 -27 6 -27 35 1 27 26 32 8 9
-38 -42 -84 -56 -135 -41 -140 18 -7 45 13 45 33 0 39 93 163 123 163 14 0 6
-39 -23 -110 -37 -89 -37 -90 -2 -90 34 0 88 42 77 59 -5 9 -10 10 -18 2 -34
-34 -35 -1 -2 63 54 106 3 155 -78 74 -35 -34 -39 -35 -27 -3 14 37 -16 50
-61 26z"/>
<path d="M4474 374 c-45 -22 -86 -106 -82 -170 3 -47 4 -49 36 -52 36 -4 92
29 92 54 0 21 -20 17 -47 -8 -31 -29 -46 -10 -37 45 10 63 51 130 62 99 6 -20
52 -15 52 6 0 40 -28 50 -76 26z"/>
<path d="M4706 375 c-62 -33 -99 -99 -94 -171 3 -48 4 -49 37 -52 49 -5 100
24 101 56 0 18 -21 14 -46 -9 -32 -30 -56 -19 -52 23 3 27 8 33 38 41 58 15
90 44 90 82 0 21 -6 35 -16 39 -22 8 -25 8 -58 -9z m34 -35 c0 -13 -49 -60
-61 -60 -16 0 -9 23 13 47 22 24 48 31 48 13z"/>
<path d="M5483 368 c-18 -13 -33 -29 -33 -35 0 -7 -4 -13 -10 -13 -5 0 -10 -8
-10 -18 0 -10 -5 -23 -11 -29 -5 -5 -9 -34 -7 -64 3 -53 4 -54 36 -57 36 -4
92 29 92 54 0 21 -20 17 -47 -8 -20 -19 -25 -20 -34 -8 -11 18 -2 80 18 120
19 38 26 42 49 26 34 -25 62 12 32 42 -18 18 -39 15 -75 -10z"/>
<path d="M5720 383 c-52 -21 -92 -98 -88 -171 3 -57 3 -57 39 -60 27 -2 42 3
63 23 39 36 21 57 -23 26 -20 -14 -32 -18 -36 -10 -11 17 4 92 25 127 19 31
21 32 44 17 21 -14 24 -14 37 1 25 30 -18 64 -61 47z"/>
<path d="M5956 383 c-70 -18 -145 -171 -106 -218 14 -17 90 -21 90 -5 0 6 7
10 15 10 12 0 35 28 35 44 0 13 -28 4 -49 -16 -28 -26 -54 -15 -59 25 -3 23 2
27 40 38 76 22 121 82 86 117 -12 12 -20 13 -52 5z m14 -45 c0 -19 -12 -33
-37 -47 -31 -16 -35 -14 -22 11 24 44 59 66 59 36z"/>
<path d="M6352 371 c-26 -22 -29 -85 -7 -115 21 -27 20 -76 -1 -76 -9 0 -22 7
-28 16 -13 17 -46 10 -46 -10 0 -35 76 -49 114 -21 25 19 24 86 -3 124 -25 34
-26 45 -7 60 10 9 16 8 26 -4 19 -23 40 -18 40 9 0 39 -52 49 -88 17z"/>
<path d="M6994 381 c-27 -12 -71 -64 -89 -107 -27 -65 1 -124 59 -124 61 1
118 75 120 155 0 30 -3 58 -9 64 -15 15 -58 21 -81 12z m56 -63 c0 -51 -61
-137 -97 -138 -16 0 -17 63 -2 93 38 73 99 101 99 45z"/>
<path d="M7830 371 c-20 -10 -36 -27 -38 -40 -4 -26 9 -27 33 -1 30 33 28 16
-5 -51 -58 -120 -33 -167 52 -99 40 32 40 32 36 4 -2 -21 2 -30 14 -32 17 -3
88 37 88 50 0 14 -22 20 -33 9 -32 -32 -18 28 29 123 19 40 18 46 -11 46 -14
0 -25 -5 -25 -11 0 -28 -58 -124 -91 -150 -40 -32 -49 -35 -49 -18 0 11 6 26
48 119 14 32 17 49 10 58 -14 16 -17 15 -58 -7z"/>
<path d="M8147 382 c-28 -6 -57 -34 -57 -54 0 -24 9 -23 37 4 20 18 23 19 23
5 0 -10 -4 -25 -9 -35 -17 -32 -51 -125 -51 -138 0 -8 10 -14 24 -14 20 0 26
7 36 48 17 70 59 126 97 130 36 4 51 29 29 50 -13 13 -18 13 -40 -2 -14 -9
-26 -21 -26 -26 0 -6 -4 -10 -10 -10 -5 0 -10 9 -10 19 0 21 -16 29 -43 23z"/>
<path d="M8433 380 c-28 -11 -103 -106 -103 -130 0 -10 -4 -22 -10 -25 -14 -9
-13 -48 2 -63 22 -22 54 -13 93 25 28 27 37 32 33 18 -3 -11 -7 -26 -9 -34 -7
-26 31 -23 66 4 34 25 48 52 23 42 -50 -20 -48 -22 -27 35 11 29 27 68 35 86
9 19 13 36 10 40 -10 10 -89 11 -113 2z m57 -43 c0 -35 -89 -146 -117 -147
-32 0 12 105 58 145 28 23 59 25 59 2z"/>
<path d="M9498 368 c-14 -13 -28 -30 -31 -38 -3 -8 -6 0 -6 18 -1 28 -4 32
-29 32 -29 0 -72 -35 -72 -58 0 -17 15 -15 30 3 37 44 36 -25 -1 -91 -27 -49
-26 -86 4 -82 16 2 23 11 25 32 4 33 48 115 71 133 9 7 28 13 42 13 34 0 46
35 19 50 -24 13 -23 13 -52 -12z"/>
<path d="M9725 383 c-56 -14 -118 -114 -113 -184 3 -44 3 -44 49 -47 37 -2 50
2 73 23 27 25 28 45 2 45 -7 0 -21 -9 -31 -20 -23 -25 -42 -25 -50 0 -12 36 3
58 44 65 60 10 108 77 81 110 -13 15 -20 16 -55 8z m15 -46 c0 -16 -27 -41
-52 -50 -13 -5 -16 -2 -11 11 15 41 63 71 63 39z"/>
<path d="M9970 382 c-44 -15 -112 -107 -125 -170 -14 -66 42 -84 95 -30 32 31
32 31 28 2 -4 -40 23 -43 68 -9 27 20 33 30 24 39 -8 8 -13 7 -20 -4 -5 -8
-12 -11 -16 -7 -8 8 7 58 37 121 11 22 19 45 19 51 0 11 -82 16 -110 7z m37
-33 c5 -5 8 -21 5 -35 -6 -31 -100 -136 -114 -128 -25 15 16 112 66 157 22 20
28 21 43 6z"/>
<path d="M10456 382 c-10 -2 -31 -16 -47 -30 -36 -31 -24 -52 15 -27 34 23 33
15 -14 -80 -47 -94 -47 -95 -16 -95 19 0 27 8 37 38 17 53 36 82 83 125 69 63
72 50 17 -68 -40 -85 -41 -95 -11 -95 15 0 40 37 40 60 0 27 113 150 125 138
6 -6 -14 -66 -44 -131 -23 -49 -21 -67 6 -67 16 0 73 36 85 55 20 28 -5 35
-34 8 -27 -24 -24 2 7 63 28 55 31 86 11 103 -19 16 -57 0 -90 -40 -28 -33
-28 -33 -24 2 5 50 -40 54 -88 8 -34 -33 -34 -33 -28 -2 7 33 -1 42 -30 35z"/>
<path d="M10936 383 c-47 -12 -126 -126 -126 -182 0 -26 32 -51 64 -51 32 0
86 35 86 56 0 20 -20 17 -46 -7 -32 -30 -56 -19 -52 23 3 28 8 33 41 41 43 10
97 59 97 87 0 16 -30 43 -42 39 -2 -1 -11 -3 -22 -6z m14 -47 c0 -13 -49 -56
-64 -56 -12 0 -6 18 15 44 22 28 49 35 49 12z"/>
<path d="M11254 383 c-12 -2 -34 -17 -49 -34 -16 -16 -33 -29 -39 -29 -6 0 -5
5 2 12 23 23 14 48 -18 48 -31 0 -80 -34 -80 -57 0 -19 10 -16 37 9 38 36 27
-12 -32 -137 -8 -17 -10 -34 -5 -39 12 -12 39 0 46 21 18 56 60 121 94 146 21
15 41 24 43 20 5 -8 -34 -118 -54 -155 -15 -28 -11 -38 15 -38 29 0 86 30 86
46 0 18 -13 24 -27 12 -29 -23 -21 19 18 98 12 24 8 77 -6 79 -5 1 -20 0 -31
-2z"/>
</g>
</svg>
