<?xml version="1.0" standalone="no"?>
<!DOCTYPE svg PUBLIC "-//W3C//DTD SVG 20010904//EN"
 "http://www.w3.org/TR/2001/REC-SVG-20010904/DTD/svg10.dtd">
<svg version="1.0" xmlns="http://www.w3.org/2000/svg"
 width="600.000000pt" height="263.000000pt" viewBox="0 0 600.000000 263.000000"
 preserveAspectRatio="xMidYMid meet">
<g transform="translate(0.000000,263.000000) scale(0.100000,-0.100000)"
fill="#0f0f0f" stroke="none">
<path d="M2430 2568 l0 -48 55 0 55 0 0 -201 0 -200 52 3 51 3 -2 198 -2 197
61 0 61 0 -3 46 -3 47 -162 1 -163 2 0 -48z"/>
<path d="M2847 2613 c-4 -3 -7 -116 -7 -250 l0 -243 56 0 55 0 -3 103 -3 102
60 0 60 0 -4 -102 -3 -103 55 0 55 0 -2 248 -1 247 -47 3 c-58 4 -63 -7 -53
-119 l7 -79 -67 0 -66 0 1 88 c1 48 1 93 1 100 -1 13 -82 18 -94 5z"/>
<path d="M3294 2611 c-2 -2 -4 -114 -4 -248 l0 -243 135 0 135 0 0 51 0 51
-85 -7 -85 -7 0 56 0 56 65 0 65 0 0 50 0 50 -65 0 -65 0 0 50 0 50 85 0 85 0
0 50 0 49 -131 -2 c-72 -1 -132 -4 -135 -6z"/>
<path d="M1790 2210 l0 -90 50 0 c43 0 50 3 50 19 0 14 -8 21 -25 23 -32 4
-37 22 -7 26 29 4 31 42 2 42 -11 0 -20 7 -20 15 0 9 9 15 25 15 18 0 25 5 25
20 0 17 -7 20 -50 20 l-50 0 0 -90z"/>
<path d="M1966 2284 c-25 -25 -15 -56 27 -83 24 -16 34 -28 28 -34 -7 -7 -16
-6 -26 3 -13 11 -19 11 -31 -2 -22 -22 6 -48 51 -48 67 0 74 70 11 110 -29 19
-34 26 -21 28 10 2 21 -1 24 -6 4 -7 12 -8 21 -2 12 7 12 14 4 27 -15 24 -67
29 -88 7z"/>
<path d="M2120 2280 c0 -13 7 -20 20 -20 18 0 20 -7 20 -70 0 -63 2 -70 20
-70 18 0 20 7 20 70 0 63 2 70 20 70 13 0 20 7 20 20 0 18 -7 20 -60 20 -53 0
-60 -2 -60 -20z"/>
<path d="M2290 2234 l0 -65 42 3 c39 3 43 5 51 38 14 60 -4 90 -53 90 l-40 0
0 -66z m60 2 c0 -14 -4 -28 -10 -31 -6 -4 -10 7 -10 24 0 17 5 31 10 31 6 0
10 -11 10 -24z"/>
<path d="M3712 2288 c-14 -14 -16 -62 -2 -53 6 4 10 -17 10 -54 0 -54 2 -61
20 -61 19 0 20 7 20 90 0 93 -12 114 -48 78z"/>
<path d="M3846 2284 c-37 -37 -14 -104 36 -104 15 0 28 -5 28 -11 0 -7 -12 -9
-34 -5 -40 8 -53 -5 -30 -28 20 -20 68 -21 88 0 19 18 22 114 6 145 -13 24
-72 26 -94 3z m64 -44 c0 -13 -7 -20 -20 -20 -13 0 -20 7 -20 20 0 13 7 20 20
20 13 0 20 -7 20 -20z"/>
<path d="M4020 2249 c0 -49 1 -51 25 -47 30 6 54 -17 37 -34 -8 -8 -15 -8 -27
2 -12 10 -19 10 -28 1 -20 -20 5 -46 44 -46 66 0 83 99 19 112 -37 7 -39 21
-3 25 52 6 38 38 -18 38 l-49 0 0 -51z"/>
<path d="M4190 2280 c0 -15 7 -20 25 -20 14 0 25 -2 25 -5 0 -3 -11 -33 -25
-67 -30 -74 -30 -68 -2 -68 19 0 27 12 50 73 39 102 38 107 -23 107 -43 0 -50
-3 -50 -20z"/>
<path d="M1367 2174 c-20 -21 -7 -55 21 -52 21 2 27 8 27 28 0 25 -31 40 -48
24z"/>
<path d="M1494 2165 c-9 -23 3 -45 25 -45 26 0 45 32 29 48 -17 17 -48 15 -54
-3z"/>
<path d="M1625 2161 c-9 -28 1 -41 31 -41 22 0 25 4 22 28 -4 34 -43 44 -53
13z"/>
<path d="M4361 2166 c-16 -20 -3 -46 24 -46 25 0 38 21 29 45 -8 19 -38 19
-53 1z"/>
<path d="M4490 2165 c-10 -12 -10 -18 0 -30 20 -25 55 -15 55 15 0 30 -35 40
-55 15z"/>
<path d="M4620 2165 c-15 -18 2 -45 30 -45 10 0 23 7 30 15 15 18 -2 45 -30
45 -10 0 -23 -7 -30 -15z"/>
<path d="M783 1950 c-146 -22 -168 -69 -168 -355 0 -288 21 -330 175 -354 151
-24 261 19 296 116 19 54 19 422 0 476 -35 96 -150 141 -303 117z m142 -157
c29 -29 35 -61 35 -198 0 -187 -14 -215 -105 -215 -88 0 -95 16 -95 215 0 199
7 215 95 215 37 0 59 -5 70 -17z"/>
<path d="M0 1601 l0 -348 46 -7 c26 -3 57 -6 70 -6 l24 0 0 150 0 150 85 0 84
0 3 -147 3 -148 68 -3 67 -3 0 356 0 355 -70 0 -70 0 0 -140 0 -140 -85 0 -85
0 0 140 0 140 -70 0 -70 0 0 -349z"/>
<path d="M1260 1595 l0 -355 70 0 70 0 0 177 c0 107 4 173 9 168 5 -6 41 -84
79 -175 l69 -165 68 0 67 0 0 350 1 350 -73 3 -73 3 6 -177 c4 -104 2 -173 -3
-168 -5 5 -40 83 -78 174 l-68 165 -72 3 -72 3 0 -356z"/>
<path d="M1870 1601 c0 -193 3 -351 8 -353 4 -2 41 -2 84 0 l76 4 36 58 c45
73 46 70 -14 70 l-51 0 3 78 3 77 93 -4 92 -3 0 71 0 71 -95 0 -95 0 0 70 0
70 120 0 120 0 0 70 0 70 -190 0 -190 0 0 -349z"/>
<path d="M2350 1941 c0 -6 36 -90 80 -187 l80 -178 0 -163 0 -163 50 0 c74 0
90 36 90 203 l0 124 80 179 c44 98 80 182 80 187 0 4 -31 7 -69 7 l-69 0 -43
-90 c-23 -49 -45 -90 -49 -90 -3 0 -26 41 -50 90 l-44 90 -68 0 c-37 0 -68 -4
-68 -9z"/>
<path d="M3198 1944 c-11 -10 -10 -692 0 -698 5 -3 82 -2 171 3 179 9 196 15
236 82 31 52 29 227 -3 287 -19 37 -21 50 -13 98 16 107 -12 181 -82 209 -45
19 -295 34 -309 19z m226 -144 c20 -7 26 -17 26 -38 0 -40 -17 -52 -72 -52
l-48 0 0 50 0 50 34 0 c19 0 46 -4 60 -10z m37 -259 c64 -65 25 -150 -71 -154
l-55 -2 -3 93 -3 92 51 0 c44 0 56 -5 81 -29z"/>
<path d="M3917 1943 c-3 -5 -18 -56 -32 -113 -15 -58 -54 -204 -87 -325 -33
-121 -63 -230 -66 -243 -4 -22 -3 -23 69 -20 l73 3 8 40 c5 22 13 57 19 78
l10 37 78 0 79 0 19 -77 19 -78 63 -3 c35 -2 68 1 72 5 4 4 -7 62 -26 128 -19
66 -61 221 -93 345 l-59 225 -71 3 c-39 2 -73 -1 -75 -5z m97 -329 c22 -84 22
-84 -28 -84 l-44 0 21 80 c24 90 27 90 51 4z"/>
<path d="M4372 1598 l3 -353 68 -3 67 -3 0 128 c0 122 1 130 26 166 14 21 28
37 30 34 3 -2 28 -76 58 -163 l53 -159 73 -3 c40 -2 77 1 81 5 4 4 -33 108
-83 230 l-91 223 87 115 c47 63 86 119 86 125 0 6 -30 10 -75 10 l-74 0 -83
-116 -83 -116 -3 116 -3 116 -69 0 -70 0 2 -352z"/>
<path d="M4970 1945 c0 -3 0 -161 -1 -352 l0 -347 188 -1 188 0 3 68 3 67
-120 0 -119 0 -4 71 c-4 90 -9 85 97 85 l90 -1 0 65 0 65 -92 3 -93 3 0 69 0
70 120 0 121 0 -3 68 -3 67 -187 3 c-104 1 -188 0 -188 -3z"/>
<path d="M5502 1598 l3 -353 170 3 c291 6 305 22 305 346 -1 334 -21 356 -336
356 l-144 0 2 -352z m315 188 c28 -24 28 -25 31 -169 5 -208 -12 -237 -143
-237 l-65 0 0 215 0 215 74 0 c65 0 79 -3 103 -24z"/>
<path d="M2172 1408 c-10 -18 -61 -105 -112 -193 -120 -205 -104 -191 -174
-159 -99 45 -207 22 -289 -62 -113 -117 -108 -299 13 -423 22 -23 40 -43 40
-45 0 -3 -41 -72 -90 -154 -61 -101 -90 -160 -90 -180 0 -35 43 -92 70 -92 16
0 256 386 400 643 17 31 35 57 38 56 4 0 45 -52 92 -116 361 -494 701 -667
1315 -668 343 0 571 48 775 163 199 113 392 366 354 466 -14 36 -43 17 -78
-52 -155 -307 -511 -473 -1016 -473 -456 -1 -785 113 -1013 349 l-39 40 237
398 c130 220 246 413 256 431 l20 32 -28 31 c-20 22 -38 32 -62 33 -38 2 -23
25 -373 -570 -79 -134 -145 -243 -148 -243 -5 0 -185 244 -208 283 -13 20 -4
38 117 241 142 235 144 242 88 277 -47 28 -72 24 -95 -13z m-326 -464 c19 -9
34 -21 34 -26 0 -8 -184 -324 -197 -338 -7 -8 -53 51 -74 95 -77 164 81 343
237 269z"/>
<path d="M3359 913 c-170 -290 -353 -477 -367 -375 -7 45 38 131 140 273 59
82 59 72 -10 140 -72 71 -128 109 -160 109 -116 0 -352 -277 -369 -435 -7 -59
1 -88 39 -130 77 -88 148 -86 246 8 39 38 42 39 42 18 0 -71 101 -110 185 -72
39 17 41 17 70 -1 53 -32 65 -24 292 196 68 65 123 115 123 112 0 -4 -22 -50
-50 -102 -64 -122 -66 -160 -8 -190 38 -20 33 -23 227 157 85 79 151 134 146
124 -59 -142 -67 -200 -35 -253 62 -101 212 -73 339 64 90 95 111 148 81 203
-16 32 -32 26 -71 -26 -82 -109 -220 -233 -260 -233 -45 0 86 237 248 449 40
53 40 55 4 92 -49 49 -74 41 -166 -52 -131 -132 -355 -342 -360 -337 -3 3 33
66 79 140 103 169 101 161 70 198 -45 53 -56 47 -269 -156 -107 -102 -195
-183 -195 -179 0 3 38 70 85 149 93 156 102 191 64 240 -42 54 -58 41 -160
-131z m-349 12 c0 -76 -173 -315 -278 -385 -88 -58 -76 11 29 170 114 174 249
290 249 215z"/>
<path d="M4395 1051 c-194 -119 -42 -409 162 -310 49 24 58 57 22 83 -19 13
-25 13 -50 0 -89 -46 -171 45 -116 129 22 35 65 42 112 20 l37 -18 24 29 c55
64 -105 120 -191 67z"/>
<path d="M4740 1048 c-121 -82 -113 -251 14 -309 198 -90 347 175 173 305 -43
32 -142 34 -187 4z m153 -99 c51 -55 11 -139 -65 -139 -91 0 -120 122 -38 162
42 21 66 16 103 -23z"/>
<path d="M4586 661 c-43 -17 -35 -86 11 -97 52 -13 85 60 41 90 -25 18 -25 18
-52 7z m54 -48 c0 -15 -3 -23 -7 -20 -9 10 -10 56 -1 51 4 -3 8 -17 8 -31z
m-50 -5 c-1 -28 -2 -30 -11 -15 -6 10 -8 25 -5 33 9 24 16 16 16 -18z m27 15
c-4 -3 -10 -3 -14 0 -3 4 0 7 7 7 7 0 10 -3 7 -7z m-3 -28 c3 -8 1 -15 -4 -15
-6 0 -10 7 -10 15 0 8 2 15 4 15 2 0 6 -7 10 -15z"/>
<path d="M2111 344 c-80 -136 -88 -167 -54 -212 43 -58 60 -46 150 105 l83
138 -47 47 c-26 27 -50 48 -53 48 -3 0 -38 -57 -79 -126z"/>
</g>
</svg>
