<?xml version="1.0" standalone="no"?>
<!DOCTYPE svg PUBLIC "-//W3C//DTD SVG 20010904//EN"
 "http://www.w3.org/TR/2001/REC-SVG-20010904/DTD/svg10.dtd">
<svg version="1.0" xmlns="http://www.w3.org/2000/svg"
 width="600.000000pt" height="400.000000pt" viewBox="0 0 600.000000 400.000000"
 preserveAspectRatio="xMidYMid meet">
<g transform="translate(0.000000,400.000000) scale(0.100000,-0.100000)"
fill="#000000" stroke="none">
<path d="M1910 3274 c-58 -11 -160 -48 -225 -82 -49 -25 -98 -64 -161 -127
-78 -77 -98 -104 -138 -185 -55 -114 -73 -181 -82 -304 -17 -257 -117 -406
-317 -475 l-57 -20 0 245 0 244 -120 0 -120 0 0 -485 0 -485 120 0 120 0 0
135 0 135 28 5 c15 4 60 18 101 32 42 14 76 21 80 15 3 -5 50 -79 105 -165
l98 -157 140 0 c108 0 138 3 132 13 -4 6 -72 107 -151 224 -78 117 -143 215
-143 219 0 4 18 31 41 61 50 66 103 177 124 258 8 33 20 110 25 170 12 133 28
191 75 270 97 162 263 258 445 259 96 0 168 -17 253 -62 150 -77 257 -232 275
-397 l7 -60 104 -3 104 -3 -6 76 c-24 277 -226 527 -502 621 -68 23 -99 28
-205 30 -69 1 -136 0 -150 -2z"/>
<path d="M2065 2323 c-16 -8 -51 -36 -77 -61 l-48 -46 0 57 0 57 -107 0 -108
0 3 -365 2 -365 110 0 110 0 0 208 c0 204 0 208 25 244 35 51 96 78 178 78
l67 0 0 105 0 105 -62 0 c-37 -1 -75 -7 -93 -17z"/>
<path d="M2560 2331 c-181 -59 -286 -234 -259 -430 18 -127 111 -247 229 -293
79 -31 203 -30 285 2 70 27 157 109 192 180 91 187 14 422 -169 516 -46 24
-67 28 -153 31 -55 1 -111 -1 -125 -6z m197 -213 c96 -57 108 -205 24 -289
-66 -66 -169 -63 -230 7 -35 39 -45 70 -46 134 -1 137 136 218 252 148z"/>
<path d="M3344 2311 c-72 -36 -146 -111 -177 -179 -18 -39 -22 -65 -22 -157 0
-96 3 -116 25 -160 31 -64 111 -144 175 -175 42 -20 65 -25 140 -25 77 0 98 4
143 26 l52 26 0 -171 c0 -228 -22 -309 -113 -412 -173 -197 -480 -206 -662
-19 -57 58 -109 154 -120 220 -15 93 -3 85 -117 85 l-101 0 6 -67 c10 -123 86
-288 176 -379 89 -93 206 -160 328 -189 95 -23 259 -17 353 14 155 49 303 174
377 316 78 151 76 135 80 733 l4 532 -105 0 -106 0 0 -30 0 -29 -52 32 c-45
28 -61 32 -137 35 -79 3 -91 1 -147 -27z m243 -178 c81 -38 116 -156 71 -243
-31 -60 -77 -90 -140 -90 -90 0 -148 46 -167 132 -33 146 105 264 236 201z"/>
<path d="M4238 2326 c-100 -36 -176 -105 -220 -202 -20 -42 -23 -66 -23 -164
0 -104 3 -121 27 -172 106 -228 428 -277 624 -96 52 48 52 47 -43 99 l-62 33
-41 -23 c-114 -64 -263 -25 -294 77 l-7 22 255 0 256 0 0 64 c0 166 -110 327
-248 366 -51 14 -180 12 -224 -4z m195 -196 c33 -29 65 -85 55 -96 -3 -2 -69
-3 -146 -2 l-141 3 19 42 c38 85 146 112 213 53z"/>
<path d="M5150 2323 c-19 -10 -54 -37 -77 -61 l-43 -44 0 56 0 56 -110 0 -110
0 0 -365 0 -365 110 0 110 0 0 203 c0 227 3 238 76 293 33 26 47 29 121 33
l84 3 -3 102 -3 101 -60 2 c-41 2 -71 -2 -95 -14z"/>
<path d="M3924 1087 c-33 -29 -37 -79 -8 -107 31 -30 84 -30 114 0 30 30 27
83 -6 109 -35 27 -66 26 -100 -2z m87 -5 c28 -24 31 -79 4 -98 -68 -50 -145
43 -79 95 33 26 45 26 75 3z"/>
<path d="M3947 1063 c-8 -17 -6 -62 3 -68 6 -4 10 9 10 29 0 25 4 36 15 36 18
0 19 -12 3 -28 -9 -9 -9 -12 0 -12 7 0 12 -7 12 -15 0 -8 4 -15 9 -15 5 0 7
15 5 33 -1 17 -3 35 -3 40 -1 4 -12 7 -25 7 -14 0 -27 -3 -29 -7z"/>
</g>
</svg>
