<?xml version="1.0" standalone="no"?>
<!DOCTYPE svg PUBLIC "-//W3C//DTD SVG 20010904//EN"
 "http://www.w3.org/TR/2001/REC-SVG-20010904/DTD/svg10.dtd">
<svg version="1.0" xmlns="http://www.w3.org/2000/svg"
 width="600.000000pt" height="293.000000pt" viewBox="0 0 600.000000 293.000000"
 preserveAspectRatio="xMidYMid meet">
<g transform="translate(0.000000,293.000000) scale(0.100000,-0.100000)"
fill="#000000" stroke="none">
<path d="M3270 2898 c0 -17 -6 -39 -14 -47 -7 -9 -20 -38 -29 -64 l-16 -48 24
3 c34 4 32 -15 -3 -24 -27 -7 -30 -14 -45 -85 -19 -89 -32 -193 -25 -193 3 0
22 7 41 15 49 20 57 19 57 -10 0 -22 -5 -25 -32 -25 -62 0 -77 -10 -89 -54
-14 -50 -14 -81 0 -134 11 -40 12 -40 44 -31 60 17 77 12 77 -21 0 -30 0 -30
-58 -30 l-59 0 -13 43 c-7 23 -18 74 -24 112 l-12 70 -47 9 c-41 7 -47 11 -47
33 0 24 2 25 38 18 20 -3 49 -13 64 -20 36 -17 41 -7 22 46 -8 24 -22 80 -30
123 -15 84 -22 96 -66 96 -19 0 -28 5 -28 16 0 13 7 15 35 10 41 -8 44 3 21
59 -10 23 -22 35 -35 35 -11 0 -22 8 -24 18 -4 16 -5 16 -6 0 -1 -11 -9 -18
-21 -18 -15 0 -23 -12 -35 -52 -8 -28 -15 -53 -15 -55 0 -1 12 2 26 7 34 13
47 13 42 -2 -3 -7 -20 -15 -39 -18 -34 -5 -34 -6 -56 -94 -13 -49 -26 -111
-29 -138 l-7 -48 34 14 c19 7 46 16 62 20 24 6 27 3 27 -18 0 -18 -7 -25 -31
-30 -17 -3 -41 -6 -53 -6 -20 0 -24 -11 -45 -100 -12 -55 -26 -100 -31 -100
-4 0 -30 9 -56 21 -54 23 -50 31 24 50 l42 11 0 57 c0 31 13 119 29 196 16 77
27 142 25 144 -2 2 -31 -21 -66 -51 -109 -94 -319 -263 -333 -268 -8 -3 52
-41 132 -85 99 -54 162 -96 195 -130 l50 -50 328 0 328 0 25 23 c14 13 42 30
63 37 67 23 53 36 -31 28 -92 -7 -95 -5 -95 85 0 80 17 73 26 -10 l7 -61 81 7
c45 3 91 9 103 12 l21 6 -29 62 c-16 33 -37 94 -47 134 l-17 73 -64 -56 c-36
-30 -68 -55 -73 -55 -19 0 -5 18 47 59 31 25 54 49 52 55 -2 6 -10 29 -17 51
-19 62 -25 70 -56 75 -34 6 -30 26 4 22 12 -1 22 1 22 6 0 21 -30 80 -44 85
-8 3 -16 16 -19 29 -4 20 -4 20 -6 -4 0 -16 -5 -28 -10 -28 -10 0 -31 -53 -31
-77 0 -10 6 -12 20 -8 14 4 20 2 20 -9 0 -8 -8 -17 -18 -20 -16 -5 -17 -14
-11 -74 14 -119 15 -115 -27 -97 -20 8 -38 15 -40 15 -2 0 -4 -18 -4 -40 0
-43 2 -45 28 -31 9 4 29 11 45 15 23 5 27 3 27 -14 0 -13 -9 -22 -27 -26 -67
-15 -66 -13 -59 -55 8 -48 35 -119 46 -119 4 0 11 25 15 55 9 73 25 81 25 11
0 -69 -7 -86 -34 -86 -30 0 -52 47 -72 158 -22 117 -19 112 -54 112 -25 0 -30
4 -30 25 0 21 5 25 29 25 16 0 48 -7 71 -15 23 -8 45 -15 47 -15 3 0 2 24 -2
53 -16 134 -29 200 -42 213 -8 8 -34 14 -59 14 -34 0 -44 4 -44 16 0 13 8 15
50 9 28 -4 50 -4 50 0 0 3 -10 29 -21 56 -19 42 -25 49 -50 49 -25 0 -29 4
-29 26 0 21 3 25 18 18 9 -4 55 -10 102 -13 47 -3 92 -10 100 -15 13 -9 13 -8
1 7 -10 13 -30 17 -90 17 -58 0 -84 5 -108 20 l-33 20 0 -32z m-452 -358 c-18
-53 -30 -70 -124 -156 l-104 -97 -36 19 c-20 10 -38 22 -40 26 -9 13 55 38 97
38 44 0 89 29 89 57 0 34 105 173 131 173 4 0 -1 -27 -13 -60z m-42 -125 l-7
-26 28 18 c26 18 27 18 20 -2 -11 -27 -66 -119 -92 -151 l-21 -26 -47 23 c-26
13 -47 26 -47 30 0 13 68 31 102 27 30 -3 33 0 36 27 3 39 21 105 28 105 4 0
3 -11 0 -25z m204 -232 l0 -35 -57 7 c-70 8 -78 12 -62 31 13 15 99 44 112 37
4 -2 7 -20 7 -40z m100 15 c55 -38 51 -50 -16 -46 -58 3 -59 3 -62 36 -3 28 0
32 21 32 13 0 39 -10 57 -22z m282 -14 c47 -24 43 -34 -16 -34 -59 0 -71 8
-61 41 7 21 24 20 77 -7z"/>
<path d="M3517 2839 c7 -7 15 -10 18 -7 3 3 -2 9 -12 12 -14 6 -15 5 -6 -5z"/>
<path d="M3202 2817 c-7 -7 -19 -30 -27 -51 -15 -35 -15 -37 1 -34 10 2 22 21
30 48 14 48 13 58 -4 37z"/>
<path d="M3558 2823 c7 -3 16 -2 19 1 4 3 -2 6 -13 5 -11 0 -14 -3 -6 -6z"/>
<path d="M2897 2745 c-21 -44 -22 -65 -3 -45 16 18 38 80 27 80 -4 0 -15 -16
-24 -35z"/>
<path d="M3144 2692 c-35 -23 -42 -77 -20 -157 15 -57 20 -51 36 50 6 39 14
80 17 93 5 22 -10 30 -33 14z"/>
<path d="M820 1749 c-261 -38 -544 -273 -701 -582 -17 -32 -45 -104 -64 -160
-96 -290 -60 -550 96 -691 167 -150 420 -132 674 49 438 312 627 979 359 1266
-62 66 -115 96 -200 114 -76 16 -84 16 -164 4z m225 -98 c53 -24 99 -74 126
-136 28 -63 37 -216 19 -319 -74 -422 -438 -861 -748 -902 -84 -11 -148 11
-208 70 -72 73 -89 127 -88 281 0 89 6 141 22 200 97 364 371 707 644 805 71
26 179 26 233 1z"/>
<path d="M3606 1694 c-195 -47 -327 -186 -326 -343 1 -113 44 -209 165 -371
203 -272 221 -422 69 -572 -185 -183 -539 -178 -663 9 -83 126 -55 295 64 385
57 43 66 58 34 58 -67 0 -193 -99 -235 -186 -51 -104 -19 -228 81 -323 106
-101 244 -147 410 -138 123 7 195 26 303 79 104 51 196 138 238 223 26 54 29
70 29 160 0 93 -2 105 -35 175 -19 41 -83 139 -141 216 -151 201 -186 283
-159 379 28 101 152 189 281 201 129 13 258 -48 300 -141 33 -73 17 -143 -47
-202 -65 -59 -18 -77 66 -25 91 56 119 173 62 263 -16 24 -43 56 -60 71 -39
33 -125 74 -183 87 -62 15 -183 12 -253 -5z"/>
<path d="M1775 1486 c-57 -26 -145 -115 -198 -197 -76 -120 -144 -271 -224
-504 -25 -71 -50 -136 -56 -144 -7 -7 -62 -54 -124 -104 -62 -49 -113 -94
-113 -98 0 -26 88 7 174 66 43 29 56 23 56 -28 0 -45 35 -102 74 -121 81 -38
195 -10 288 73 25 22 48 41 51 41 2 0 7 -13 10 -29 9 -44 56 -91 100 -101 69
-15 190 40 249 113 16 21 16 21 31 -14 30 -73 113 -112 194 -90 87 24 178 109
219 206 26 63 1 64 -44 3 -48 -65 -104 -116 -148 -134 -42 -18 -49 -17 -68 2
-37 37 -18 94 209 614 97 223 181 415 186 428 8 21 7 22 -54 22 l-62 0 -124
-281 -124 -280 -27 30 c-16 17 -40 33 -55 37 -42 10 -119 -3 -172 -30 -94 -48
-125 -82 -352 -394 -83 -116 -142 -162 -202 -162 -73 0 -86 56 -44 189 24 77
29 84 105 153 44 40 115 113 158 161 244 280 345 515 249 582 -32 22 -104 18
-162 -9z m133 -91 c4 -44 -62 -169 -157 -297 -78 -105 -216 -258 -231 -258 -5
0 7 37 25 83 92 227 173 374 251 455 42 44 57 53 80 50 24 -2 30 -8 32 -33z
m277 -469 c58 -42 -37 -289 -165 -429 -154 -168 -238 -65 -131 160 63 131 150
236 221 267 44 19 52 19 75 2z"/>
<path d="M4844 1225 c-38 -38 -30 -77 17 -89 46 -11 90 9 103 47 15 41 -2 61
-52 65 -34 3 -47 -2 -68 -23z"/>
<path d="M4010 923 c-84 -206 -151 -361 -274 -636 -64 -142 -116 -263 -116
-268 0 -13 118 -9 128 5 5 6 47 94 92 196 45 102 84 187 86 189 1 2 16 -6 32
-18 46 -32 108 -42 178 -28 161 34 325 221 356 408 30 184 -112 292 -279 214
-56 -26 -60 -24 -38 15 25 44 20 50 -49 50 l-64 0 -52 -127z m347 12 c31 -22
36 -63 18 -141 -35 -153 -171 -347 -263 -375 -122 -36 -143 95 -48 296 83 175
216 274 293 220z"/>
<path d="M5283 1010 c-116 -27 -225 -136 -313 -310 -104 -208 -223 -326 -291
-290 -36 20 -20 77 95 335 59 132 110 246 113 253 4 9 -12 12 -61 12 -60 0
-67 -2 -75 -22 -33 -88 -207 -421 -237 -457 -21 -24 -62 -59 -91 -78 -29 -18
-53 -38 -53 -43 0 -24 94 3 132 37 21 19 20 20 39 -31 28 -76 129 -99 227 -50
32 16 75 51 109 90 l57 63 18 -46 c37 -98 109 -139 231 -131 92 6 163 37 238
106 l56 51 17 -39 c50 -113 183 -148 340 -90 70 27 156 106 156 145 0 21 -3
24 -17 16 -10 -5 -29 -21 -43 -36 -81 -87 -243 -99 -291 -21 -38 62 -19 150
35 162 59 12 174 72 220 114 174 161 87 320 -131 239 -92 -34 -182 -133 -261
-284 -107 -207 -188 -287 -291 -287 -59 0 -86 13 -111 55 -77 126 95 487 233
487 21 0 67 -35 56 -43 -2 -1 -16 -9 -32 -17 -56 -28 -42 -90 21 -92 61 -2
110 54 97 112 -8 36 -53 78 -96 90 -38 11 -50 11 -96 0z m625 -72 c33 -33 -13
-119 -90 -170 -56 -38 -144 -75 -155 -65 -11 12 82 159 129 203 49 45 91 57
116 32z"/>
</g>
</svg>
