<?xml version="1.0" standalone="no"?>
<!DOCTYPE svg PUBLIC "-//W3C//DTD SVG 20010904//EN"
 "http://www.w3.org/TR/2001/REC-SVG-20010904/DTD/svg10.dtd">
<svg version="1.0" xmlns="http://www.w3.org/2000/svg"
 width="600.000000pt" height="261.000000pt" viewBox="0 0 600.000000 261.000000"
 preserveAspectRatio="xMidYMid meet">
<g transform="translate(0.000000,261.000000) scale(0.100000,-0.100000)"
fill="#000000" stroke="none">
<path d="M5090 2590 c-19 -4 -73 -13 -120 -20 -109 -16 -321 -85 -430 -140
-234 -117 -469 -323 -607 -529 -112 -169 -211 -413 -254 -631 -45 -223 -35
-525 21 -700 92 -282 264 -436 577 -515 251 -64 524 -53 828 35 101 29 291
102 308 119 4 4 55 156 111 337 175 558 188 598 212 646 26 51 76 97 144 134
l45 24 -494 0 -494 0 45 -30 c52 -34 78 -80 78 -136 0 -33 -44 -191 -85 -309
-17 -47 -159 -503 -184 -590 -20 -68 -27 -72 -141 -74 -165 -2 -284 69 -349
209 -80 172 -74 428 20 789 47 184 77 273 135 404 243 550 623 842 996 766
135 -27 287 -102 401 -196 37 -30 44 -29 52 6 3 16 26 90 49 163 31 94 40 135
32 140 -29 17 -254 68 -383 87 -145 22 -436 28 -513 11z"/>
<path d="M842 2543 c54 -58 53 -105 -7 -292 -24 -75 -64 -201 -88 -281 -59
-189 -255 -816 -312 -995 -25 -77 -87 -275 -139 -440 -51 -165 -98 -312 -104
-326 -14 -35 -68 -96 -116 -131 l-39 -28 454 1 c270 0 445 4 432 9 -34 14 -73
79 -73 123 0 22 30 132 66 245 36 114 91 288 123 387 l57 180 140 -4 c303 -7
594 49 809 156 305 153 498 408 570 751 55 266 -42 478 -270 587 -172 82 -138
79 -875 83 l-655 3 27 -28z m956 -190 c63 -26 103 -63 130 -122 23 -49 26 -69
27 -161 0 -111 -9 -158 -57 -310 -107 -338 -305 -538 -562 -568 -73 -9 -155
-5 -169 7 -6 6 11 68 122 416 21 66 53 167 71 225 17 58 40 130 50 160 10 30
37 116 60 190 23 74 46 148 52 164 l11 29 114 -8 c63 -3 131 -13 151 -22z"/>
<path d="M3060 1981 c-66 -17 -169 -65 -212 -98 -155 -121 -248 -350 -248
-613 l0 -87 -47 -18 c-167 -60 -217 -81 -293 -122 -202 -107 -318 -243 -355
-421 -20 -96 -19 -151 5 -243 44 -176 179 -303 370 -350 85 -20 269 -16 362
10 125 34 221 76 346 153 34 21 65 38 68 38 3 0 28 -20 56 -45 27 -24 77 -65
110 -90 l60 -45 311 0 312 0 -76 34 c-101 44 -196 96 -294 162 -93 62 -225
170 -225 185 0 5 24 39 54 75 30 37 71 96 90 133 34 65 72 192 78 261 3 33 1
35 -32 38 -19 2 -90 1 -157 -3 -118 -7 -121 -7 -102 -26 25 -25 32 -59 27
-127 -5 -62 -53 -182 -73 -182 -17 0 -117 167 -156 260 -39 92 -69 195 -69
235 0 29 6 34 112 85 219 107 337 189 407 284 54 72 63 93 77 163 19 103 -5
189 -74 259 -98 100 -269 138 -432 95z m205 -147 c45 -49 23 -169 -51 -276
-52 -75 -248 -258 -276 -258 -12 0 -15 96 -7 169 17 141 60 242 138 325 66 71
152 88 196 40z m-610 -924 c45 -145 137 -340 215 -455 28 -41 50 -76 50 -78 0
-8 -94 -50 -178 -78 -194 -67 -371 -19 -438 117 -21 44 -27 70 -28 132 -1 69
3 85 33 147 24 50 55 90 105 139 69 66 204 152 217 138 4 -4 14 -32 24 -62z"/>
</g>
</svg>
