<?xml version="1.0" standalone="no"?>
<!DOCTYPE svg PUBLIC "-//W3C//DTD SVG 20010904//EN"
 "http://www.w3.org/TR/2001/REC-SVG-20010904/DTD/svg10.dtd">
<svg version="1.0" xmlns="http://www.w3.org/2000/svg"
 width="201.000000pt" height="96.000000pt" viewBox="0 0 201.000000 96.000000"
 preserveAspectRatio="xMidYMid meet">
<g transform="translate(0.000000,96.000000) scale(0.050000,-0.050000)"
fill="#000000" stroke="none">
<path d="M3949 1769 c-40 -50 -40 -50 -200 -25 -264 41 -1311 34 -1569 -10
-330 -57 -697 -163 -884 -257 -97 -48 -96 -49 -98 38 l-3 75 -13 -71 c-8 -39
-21 -81 -29 -95 -11 -16 0 -24 34 -24 29 0 66 -20 89 -49 l38 -49 23 49 c27
59 197 72 250 20 26 -26 30 -26 40 0 14 35 193 41 227 7 35 -35 66 -2 66 67 0
135 220 241 300 145 21 -25 35 -23 107 18 88 51 559 72 668 30 53 -20 60 -90
16 -149 -45 -59 -37 -72 36 -58 42 8 95 0 143 -20 56 -23 82 -26 103 -9 15 13
57 17 102 10 212 -34 259 -14 454 199 94 102 171 191 171 197 0 26 -32 8 -71
-39z"/>
<path d="M655 1633 c-277 -104 -301 -280 -74 -524 141 -151 148 -199 39 -254
-127 -64 -291 -43 -392 48 -72 65 -189 -39 -127 -114 175 -211 653 -152 776
95 65 132 48 182 -118 350 -148 150 -168 203 -95 255 66 46 238 41 301 -9 63
-49 80 -50 122 -3 104 115 -224 233 -432 156z"/>
<path d="M2358 1534 c-84 -56 -128 -135 -249 -441 -53 -134 -134 -335 -181
-448 l-84 -205 54 0 c88 0 117 37 227 297 l105 248 85 7 c47 4 85 5 85 1 0 -5
-100 -253 -175 -430 -16 -38 113 -11 159 34 19 18 65 114 103 213 65 169 73
180 131 186 53 6 62 0 62 -40 0 -205 391 -273 471 -81 38 91 38 91 -26 58 -99
-51 -182 -59 -236 -24 -79 51 -63 91 37 91 228 0 428 238 270 322 -124 67
-311 9 -429 -132 -49 -59 -91 -90 -121 -90 -59 0 -60 -7 33 179 77 153 122
195 184 171 17 -7 42 13 64 50 44 75 19 90 -120 75 -125 -14 -208 -101 -294
-305 l-67 -159 -83 -1 c-99 0 -98 -6 -26 153 67 149 123 206 181 188 35 -12
102 65 102 118 0 34 -200 7 -262 -35z m742 -322 c0 -40 -41 -68 -136 -89 -99
-22 -107 -3 -31 68 58 54 167 68 167 21z"/>
<path d="M2028 1509 c-55 -54 -55 -84 -3 -117 83 -52 210 70 143 137 -44 44
-82 38 -140 -20z"/>
<path d="M3807 1334 c32 -92 -95 -238 -190 -220 -65 12 -96 -29 -169 -219 -64
-167 -105 -198 -261 -196 -65 0 -159 -4 -211 -11 -127 -16 -222 19 -303 114
l-67 78 -56 -135 c-101 -242 -127 -265 -299 -265 -112 0 -149 -7 -158 -30 -44
-114 -292 -130 -315 -20 -11 49 -14 51 -16 14 -8 -165 217 -234 338 -104 51
55 67 60 190 60 162 0 217 46 290 239 51 137 55 140 120 72 71 -77 202 -119
315 -102 52 7 147 12 212 11 156 -4 197 27 261 195 76 199 100 227 188 221
136 -11 245 211 149 304 -27 27 -29 26 -18 -6z"/>
<path d="M341 1309 c-1 -55 95 -201 196 -298 124 -119 100 -59 -28 70 -61 62
-124 148 -139 191 -17 48 -29 62 -29 37z"/>
<path d="M1980 1325 c-31 -6 -220 -446 -220 -509 0 -33 49 -53 103 -41 36 8
247 492 228 523 -13 22 -72 36 -111 27z"/>
<path d="M3320 1285 c0 -30 -36 -152 -80 -271 -44 -119 -80 -221 -80 -225 0
-21 137 -7 155 16 11 14 50 95 85 181 71 172 127 226 216 208 65 -13 151 97
100 129 -43 27 -144 19 -194 -16 -44 -31 -48 -31 -66 0 -33 60 -136 43 -136
-22z"/>
<path d="M1022 1160 c-138 -349 -56 -495 203 -363 72 37 74 37 109 -2 144
-158 567 260 495 489 -18 57 -149 51 -149 -7 0 -82 -69 -263 -123 -320 -109
-117 -143 -49 -71 139 78 201 77 213 -8 220 l-73 6 -65 -166 c-68 -170 -126
-256 -174 -256 -49 0 -48 48 4 179 72 186 69 241 -17 241 -66 0 -69 -4 -131
-160z"/>
<path d="M12 760 c42 -162 325 -282 578 -244 l100 15 62 -110 c36 -66 106
-146 170 -198 59 -47 124 -99 143 -114 19 -16 35 -23 35 -17 0 7 21 -1 46 -18
26 -16 80 -39 122 -51 l75 -21 -79 86 c-135 146 -131 270 13 467 57 76 67 82
114 65 77 -30 132 -24 220 20 76 40 81 40 145 5 58 -31 68 -31 84 -5 31 48 23
60 -39 60 -37 0 -70 16 -88 42 l-29 42 -64 -47 c-52 -39 -84 -46 -182 -42
-190 7 -223 7 -320 -6 -66 -9 -111 -3 -155 19 -59 31 -64 30 -156 -28 -250
-158 -667 -116 -779 78 l-29 52 13 -50z m938 -160 c-15 -24 60 -45 125 -35 30
5 44 5 30 0 -14 -4 -25 -16 -25 -26 0 -11 -20 -20 -45 -22 l-45 -2 45 -9 c44
-9 44 -9 4 -51 -48 -52 -92 -61 -107 -22 -7 16 -3 24 7 18 10 -7 15 6 11 28
-4 23 3 41 15 41 12 0 5 13 -16 29 -53 40 -89 38 -39 -2 32 -26 33 -30 5 -20
-19 7 -51 19 -70 26 -28 10 -27 6 5 -20 22 -17 30 -32 17 -32 -12 -1 -33 12
-46 28 -26 31 43 85 96 74 17 -4 21 4 12 19 -10 15 -7 19 8 10 13 -8 19 -22
13 -32z"/>
</g>
</svg>
