<?xml version="1.0" standalone="no"?>
<!DOCTYPE svg PUBLIC "-//W3C//DTD SVG 20010904//EN"
 "http://www.w3.org/TR/2001/REC-SVG-20010904/DTD/svg10.dtd">
<svg version="1.0" xmlns="http://www.w3.org/2000/svg"
 width="250.000000pt" height="250.000000pt" viewBox="0 0 250.000000 250.000000"
 preserveAspectRatio="xMidYMid meet">
<g transform="translate(0.000000,250.000000) scale(0.100000,-0.100000)"
fill="#000000" stroke="none">
<path d="M1073 2236 c-250 -48 -476 -189 -627 -390 -20 -27 -35 -50 -33 -52 2
-2 100 12 217 32 191 31 223 39 294 74 117 57 190 74 326 75 128 0 202 -16
309 -65 34 -17 67 -27 72 -24 12 7 216 44 245 44 21 0 21 -2 -14 -114 l-35
-113 33 -55 32 -54 62 13 c33 7 98 14 142 16 l81 2 -22 52 c-53 120 -229 341
-262 329 -8 -3 -12 -2 -8 3 7 13 -72 74 -85 66 -6 -4 -9 -1 -8 6 5 20 -182
108 -288 135 -123 32 -320 41 -431 20z"/>
<path d="M785 1793 c-247 -41 -456 -80 -462 -86 -12 -12 -75 -198 -70 -204 2
-1 85 12 186 28 100 17 185 29 187 26 3 -3 -70 -251 -162 -551 -92 -301 -165
-548 -163 -550 9 -9 127 16 165 34 22 11 51 34 63 51 19 25 234 703 317 1001
18 64 4 57 164 83 119 20 157 32 197 63 32 24 76 100 89 155 6 25 4 27 -27 26
-19 -1 -236 -35 -484 -76z"/>
<path d="M1718 1845 c-114 -23 -133 -46 -193 -240 -21 -66 -41 -124 -45 -128
-3 -4 -54 -16 -111 -26 -105 -18 -170 -43 -200 -77 -57 -64 -169 -400 -169
-505 0 -59 27 -96 77 -105 36 -7 390 41 405 55 6 5 328 1021 328 1035 0 8 -12
7 -92 -9z m-291 -557 c-2 -7 -28 -88 -57 -180 -44 -137 -57 -167 -74 -172 -33
-9 -64 -7 -71 4 -8 14 91 327 107 336 12 8 64 21 87 23 7 1 11 -5 8 -11z"/>
<path d="M2015 1559 c-167 -25 -240 -80 -302 -232 -38 -93 -103 -323 -103
-366 0 -84 63 -118 197 -107 110 9 204 39 250 79 33 29 93 135 93 165 0 15 -7
15 -108 -3 -71 -12 -86 -18 -109 -45 -21 -26 -32 -31 -62 -28 -33 3 -36 5 -35
34 1 17 8 44 15 60 14 28 18 29 174 54 l160 25 38 115 c58 178 50 230 -39 250
-46 11 -87 11 -169 -1z m14 -168 c16 -10 8 -73 -12 -89 -6 -5 -36 -12 -65 -16
-53 -7 -53 -6 -46 16 20 67 32 82 69 91 32 8 39 7 54 -2z"/>
<path d="M914 1526 c-44 -44 -46 -86 -5 -127 25 -24 38 -29 78 -29 99 1 149
96 84 161 -24 24 -38 29 -76 29 -40 0 -52 -5 -81 -34z"/>
<path d="M403 1466 c-67 -11 -128 -27 -135 -34 -10 -10 -13 -57 -13 -180 0
-178 15 -263 67 -382 l23 -52 99 324 c55 177 101 329 104 336 5 15 5 15 -145
-12z"/>
<path d="M930 1312 c-47 -8 -86 -16 -87 -17 -7 -5 -194 -607 -190 -611 3 -3
51 3 108 13 l103 18 54 170 c29 94 73 232 97 308 50 158 59 145 -85 119z"/>
<path d="M2216 1097 c-32 -90 -70 -172 -86 -182 -6 -4 -7 -12 -4 -18 4 -7 4
-9 0 -5 -4 3 -23 -4 -43 -17 -47 -33 -130 -63 -195 -71 -59 -7 -102 -29 -92
-46 4 -7 3 -8 -5 -4 -6 4 -14 1 -17 -7 -8 -21 -107 -97 -175 -136 -210 -118
-481 -118 -697 0 l-73 40 -76 -15 c-41 -9 -85 -16 -97 -16 -17 0 -28 -13 -48
-57 -31 -67 -32 -64 61 -130 86 -61 226 -126 326 -153 124 -34 321 -38 453
-11 406 84 718 405 788 813 8 50 14 92 12 94 -2 2 -17 -33 -32 -79z"/>
</g>
</svg>
